<svg id="Layer_1" data-name="Layer 1" xmlns="http://www.w3.org/2000/svg" viewBox="0 0 190 67"><defs><style>.cls-1,.cls-2{fill:#221f20;}.cls-1{fill-rule:evenodd;}</style></defs><title>Artboard 1</title><path class="cls-1" d="M3.32,51.1H1.4l-.23.53a1.23,1.23,0,0,0-.11.44.37.37,0,0,0,.19.34,1.64,1.64,0,0,0,.53.1v.15H0V52.5a.82.82,0,0,0,.48-.24,3.3,3.3,0,0,0,.47-.82L2.85,47.1h.08l2,4.46a2.71,2.71,0,0,0,.46.8.63.63,0,0,0,.39.15v.15H3.11V52.5h.11a.83.83,0,0,0,.44-.09.21.21,0,0,0,.09-.19.5.5,0,0,0,0-.15s0-.12-.12-.3l-.29-.68Zm-.14-.3-.81-1.87L1.54,50.8Z"/><path class="cls-2" d="M9.07,48.9v2.93a1.1,1.1,0,0,0,.08.54.47.47,0,0,0,.32.13v.14H7.95v-.5a2,2,0,0,1-.54.47,1.28,1.28,0,0,1-.6.14.9.9,0,0,1-.57-.19,1,1,0,0,1-.33-.46,3.38,3.38,0,0,1-.08-.91V49.71a1.06,1.06,0,0,0-.08-.53A.47.47,0,0,0,5.43,49V48.9H7v2.56A2.25,2.25,0,0,0,7,52a.37.37,0,0,0,.12.18.33.33,0,0,0,.19.06.48.48,0,0,0,.26-.07,1.69,1.69,0,0,0,.38-.42v-2a1.07,1.07,0,0,0-.08-.53A.47.47,0,0,0,7.54,49V48.9Z"/><path class="cls-2" d="M12.1,48.79l.06,1.28H12a2,2,0,0,0-.51-.78.83.83,0,0,0-.52-.21.39.39,0,0,0-.28.11.34.34,0,0,0-.12.25.33.33,0,0,0,.08.21,3.82,3.82,0,0,0,.72.56,2.91,2.91,0,0,1,.77.68,1.08,1.08,0,0,1,.19.62,1.33,1.33,0,0,1-.16.62,1.12,1.12,0,0,1-.44.46,1.29,1.29,0,0,1-.63.16,2.19,2.19,0,0,1-.72-.17l-.16,0c-.09,0-.16.07-.22.2H9.89L9.83,51.4H10a1.75,1.75,0,0,0,.49.8,1,1,0,0,0,.6.26.43.43,0,0,0,.31-.12.38.38,0,0,0,.12-.29.5.5,0,0,0-.12-.33,3.09,3.09,0,0,0-.54-.42,4.24,4.24,0,0,1-.79-.65,1.13,1.13,0,0,1-.27-.72,1.18,1.18,0,0,1,.3-.78,1.07,1.07,0,0,1,.87-.35,1.26,1.26,0,0,1,.59.15.39.39,0,0,0,.18.06.21.21,0,0,0,.12,0,.81.81,0,0,0,.14-.17Z"/><path class="cls-2" d="M14.08,47.53V48.9H15v.4h-.89v2.31a2,2,0,0,0,0,.42.33.33,0,0,0,.11.15.24.24,0,0,0,.14.05c.17,0,.34-.13.49-.4l.12.09a1.1,1.1,0,0,1-1.05.77,1,1,0,0,1-.6-.19.9.9,0,0,1-.31-.45,3.8,3.8,0,0,1,0-.74v-2h-.49v-.14a5.12,5.12,0,0,0,.86-.75,4.53,4.53,0,0,0,.62-.88Z"/><path class="cls-2" d="M16.8,48.9v.85a2.71,2.71,0,0,1,.65-.77,1,1,0,0,1,.54-.19.47.47,0,0,1,.36.14.53.53,0,0,1,.14.39.61.61,0,0,1-.13.42.4.4,0,0,1-.31.15.54.54,0,0,1-.37-.14l-.18-.15-.09,0a.34.34,0,0,0-.22.09.84.84,0,0,0-.25.39,2.71,2.71,0,0,0-.13.86V52a.94.94,0,0,0,0,.3.33.33,0,0,0,.14.16.87.87,0,0,0,.32.06v.14h-2V52.5a.44.44,0,0,0,.33-.13,1.25,1.25,0,0,0,.09-.61V49.69a1.59,1.59,0,0,0,0-.41.32.32,0,0,0-.12-.16.62.62,0,0,0-.27-.07V48.9Z"/><path class="cls-1" d="M20.55,52.09a2,2,0,0,1-1.23.61.72.72,0,0,1-.75-.74,1,1,0,0,1,.37-.77,6.94,6.94,0,0,1,1.61-.91V49.9a1.73,1.73,0,0,0,0-.53.41.41,0,0,0-.17-.19.52.52,0,0,0-.29-.08.74.74,0,0,0-.43.12.21.21,0,0,0-.1.17.35.35,0,0,0,.11.21.52.52,0,0,1,.15.33.45.45,0,0,1-.15.34.54.54,0,0,1-.38.14.62.62,0,0,1-.43-.15.47.47,0,0,1-.17-.36.82.82,0,0,1,.23-.55,1.43,1.43,0,0,1,.64-.41,2.61,2.61,0,0,1,.85-.14,1.39,1.39,0,0,1,.84.23,1.06,1.06,0,0,1,.41.49,3.23,3.23,0,0,1,.06.78v1.45a1.54,1.54,0,0,0,0,.33.2.2,0,0,0,.06.1.15.15,0,0,0,.09,0c.07,0,.14,0,.21-.15l.12.1a1.5,1.5,0,0,1-.42.43.89.89,0,0,1-.49.13.76.76,0,0,1-.5-.15.69.69,0,0,1-.22-.46Zm0-.29V50.55a2.35,2.35,0,0,0-.72.61.74.74,0,0,0-.16.44.46.46,0,0,0,.13.33.37.37,0,0,0,.28.11.78.78,0,0,0,.46-.23Z"/><path class="cls-2" d="M23.8,47.21v4.66a.91.91,0,0,0,.09.51.52.52,0,0,0,.36.12v.14h-2V52.5a.49.49,0,0,0,.37-.15.89.89,0,0,0,.08-.49V48a.87.87,0,0,0-.09-.5.49.49,0,0,0-.36-.13v-.15Z"/><path class="cls-1" d="M25.52,47.08a.63.63,0,0,1,.62.62.59.59,0,0,1-.19.44.62.62,0,0,1-.87-.87.59.59,0,0,1,.44-.18Zm.56,1.82v3a.92.92,0,0,0,.09.51.52.52,0,0,0,.36.12v.14h-2V52.5a.49.49,0,0,0,.37-.15.89.89,0,0,0,.08-.49V49.68a.88.88,0,0,0-.09-.51.49.49,0,0,0-.36-.13V48.9Z"/><path class="cls-1" d="M28.72,52.09a2,2,0,0,1-1.23.61.72.72,0,0,1-.75-.74,1,1,0,0,1,.37-.77,6.88,6.88,0,0,1,1.61-.91V49.9a1.74,1.74,0,0,0,0-.53.41.41,0,0,0-.17-.19.52.52,0,0,0-.29-.08.74.74,0,0,0-.43.12.2.2,0,0,0-.1.17.35.35,0,0,0,.11.21.52.52,0,0,1,.15.33.45.45,0,0,1-.15.34.54.54,0,0,1-.38.14.62.62,0,0,1-.42-.15.47.47,0,0,1-.17-.36.82.82,0,0,1,.23-.55,1.43,1.43,0,0,1,.64-.41,2.61,2.61,0,0,1,.85-.14,1.39,1.39,0,0,1,.84.23,1.05,1.05,0,0,1,.4.49,3.2,3.2,0,0,1,.06.78v1.45a1.5,1.5,0,0,0,0,.33.2.2,0,0,0,.06.1.15.15,0,0,0,.09,0c.07,0,.14,0,.21-.15l.12.1a1.5,1.5,0,0,1-.42.43.89.89,0,0,1-.48.13.76.76,0,0,1-.5-.15.69.69,0,0,1-.22-.46Zm0-.29V50.55a2.34,2.34,0,0,0-.72.61.74.74,0,0,0-.16.44.46.46,0,0,0,.13.33.37.37,0,0,0,.28.11.78.78,0,0,0,.47-.23Z"/><path class="cls-2" d="M32,48.9v.48a2.17,2.17,0,0,1,.55-.45,1.17,1.17,0,0,1,.57-.14.9.9,0,0,1,.61.2,1,1,0,0,1,.32.5,3.88,3.88,0,0,1,.06.88v1.46a1.16,1.16,0,0,0,.08.54.48.48,0,0,0,.33.13v.14h-1.9V52.5a.4.4,0,0,0,.3-.18,1.16,1.16,0,0,0,.06-.5V50.16a2.75,2.75,0,0,0,0-.58.34.34,0,0,0-.12-.19.3.3,0,0,0-.19-.07c-.23,0-.44.16-.64.49v2a1.15,1.15,0,0,0,.08.53.41.41,0,0,0,.29.14v.14h-1.9V52.5a.47.47,0,0,0,.34-.15,1.11,1.11,0,0,0,.07-.52V49.71a1.06,1.06,0,0,0-.08-.53.48.48,0,0,0-.33-.14V48.9Z"/><path class="cls-2" d="M41.86,47.09V49h-.15a2.44,2.44,0,0,0-.81-1.19,1.89,1.89,0,0,0-1.17-.41,1.51,1.51,0,0,0-1,.34,1.84,1.84,0,0,0-.57,1A4.73,4.73,0,0,0,38,50a4.6,4.6,0,0,0,.18,1.37,1.57,1.57,0,0,0,.59.87,1.7,1.7,0,0,0,1,.28,2.18,2.18,0,0,0,.4,0,3,3,0,0,0,.42-.12V51.18a1.19,1.19,0,0,0,0-.41.4.4,0,0,0-.18-.17.68.68,0,0,0-.33-.07h-.14v-.15H42.5v.15a1.13,1.13,0,0,0-.42.08.41.41,0,0,0-.18.2,1.15,1.15,0,0,0,0,.37v1.13a5.41,5.41,0,0,1-1.09.35,5.48,5.48,0,0,1-1.17.12,3.46,3.46,0,0,1-1.29-.21,3.33,3.33,0,0,1-.9-.55,2.67,2.67,0,0,1-.61-.77A2.7,2.7,0,0,1,36.53,50a2.79,2.79,0,0,1,.86-2.07,3,3,0,0,1,2.17-.85,3.74,3.74,0,0,1,.73.06,3.58,3.58,0,0,1,.57.18,2.39,2.39,0,0,0,.47.15.32.32,0,0,0,.21-.08.76.76,0,0,0,.18-.31Z"/><path class="cls-1" d="M44.46,48.79a1.74,1.74,0,0,1,.91.25,1.6,1.6,0,0,1,.64.72,2.36,2.36,0,0,1,.22,1,2.16,2.16,0,0,1-.4,1.33,1.6,1.6,0,0,1-1.35.65,1.55,1.55,0,0,1-1.3-.59,2.2,2.2,0,0,1-.46-1.38,2.22,2.22,0,0,1,.47-1.4,1.54,1.54,0,0,1,1.28-.6Zm0,.28a.47.47,0,0,0-.35.16,1.09,1.09,0,0,0-.19.61c0,.3,0,.72,0,1.26a5.33,5.33,0,0,0,.06.8.77.77,0,0,0,.19.43.45.45,0,0,0,.33.15.47.47,0,0,0,.3-.1A.67.67,0,0,0,45,52,9.2,9.2,0,0,0,45,50.46a3.8,3.8,0,0,0-.08-.93.72.72,0,0,0-.22-.37.42.42,0,0,0-.27-.08Z"/><path class="cls-2" d="M48,52.76l-1.26-2.91a2.84,2.84,0,0,0-.36-.67A.48.48,0,0,0,46.1,49V48.9h2V49a.36.36,0,0,0-.26.07.27.27,0,0,0-.1.21,1.8,1.8,0,0,0,.18.56l.62,1.4L49,50.07a2.37,2.37,0,0,0,.21-.74.25.25,0,0,0-.09-.2.51.51,0,0,0-.32-.09V48.9h1.23V49a.51.51,0,0,0-.29.13,2.46,2.46,0,0,0-.34.64l-1.25,2.94Z"/><path class="cls-1" d="M53,50.64H51a2,2,0,0,0,.4,1.18.84.84,0,0,0,.67.33.78.78,0,0,0,.44-.13,1.8,1.8,0,0,0,.42-.49l.14.09a2.29,2.29,0,0,1-.67.88,1.47,1.47,0,0,1-.85.26,1.42,1.42,0,0,1-1.26-.64,2.26,2.26,0,0,1-.34-1.28,2.13,2.13,0,0,1,.5-1.49,1.57,1.57,0,0,1,1.19-.56,1.28,1.28,0,0,1,1,.47A2.12,2.12,0,0,1,53,50.64Zm-1-.27a3.62,3.62,0,0,0-.07-.89.71.71,0,0,0-.22-.36.33.33,0,0,0-.23-.07.4.4,0,0,0-.34.2,1.76,1.76,0,0,0-.24,1v.14Z"/><path class="cls-2" d="M54.79,48.9v.85a2.71,2.71,0,0,1,.65-.77,1,1,0,0,1,.54-.19.47.47,0,0,1,.36.14.53.53,0,0,1,.14.39.61.61,0,0,1-.13.42.4.4,0,0,1-.31.15.54.54,0,0,1-.37-.14l-.18-.15-.09,0a.34.34,0,0,0-.22.09.84.84,0,0,0-.25.39,2.72,2.72,0,0,0-.13.86V52a.93.93,0,0,0,0,.3.33.33,0,0,0,.14.16.87.87,0,0,0,.32.06v.14h-2V52.5a.44.44,0,0,0,.33-.13,1.25,1.25,0,0,0,.09-.61V49.69a1.56,1.56,0,0,0,0-.41.32.32,0,0,0-.12-.16.62.62,0,0,0-.27-.07V48.9Z"/><path class="cls-2" d="M58.24,48.9v.48a2.17,2.17,0,0,1,.55-.45,1.17,1.17,0,0,1,.57-.14A.9.9,0,0,1,60,49a1,1,0,0,1,.32.5,3.91,3.91,0,0,1,.06.88v1.46a1.16,1.16,0,0,0,.08.54.48.48,0,0,0,.33.13v.14H58.86V52.5a.39.39,0,0,0,.3-.18,1.15,1.15,0,0,0,.06-.5V50.16a2.69,2.69,0,0,0,0-.58.34.34,0,0,0-.12-.19.3.3,0,0,0-.19-.07c-.23,0-.44.16-.64.49v2a1.15,1.15,0,0,0,.08.53.41.41,0,0,0,.29.14v.14h-1.9V52.5a.46.46,0,0,0,.34-.15,1.12,1.12,0,0,0,.07-.52V49.71a1.07,1.07,0,0,0-.08-.53.47.47,0,0,0-.32-.14V48.9Z"/><path class="cls-2" d="M62.59,48.9v.49a2.13,2.13,0,0,1,.57-.47,1.26,1.26,0,0,1,.58-.14,1,1,0,0,1,.61.17,1.06,1.06,0,0,1,.38.51,2.39,2.39,0,0,1,.61-.52,1.28,1.28,0,0,1,.62-.16,1,1,0,0,1,.62.18.9.9,0,0,1,.32.45,3,3,0,0,1,.09.88v1.53a1.14,1.14,0,0,0,.08.54.49.49,0,0,0,.33.14v.14H65.44V52.5a.43.43,0,0,0,.34-.18,1.06,1.06,0,0,0,.07-.5V50.22a3,3,0,0,0,0-.64.37.37,0,0,0-.13-.2.31.31,0,0,0-.2-.07.59.59,0,0,0-.35.13,1.55,1.55,0,0,0-.36.38v2a1.15,1.15,0,0,0,.07.51.41.41,0,0,0,.35.17v.14H63.26V52.5a.43.43,0,0,0,.24-.08.33.33,0,0,0,.12-.17,1.81,1.81,0,0,0,0-.43V50.22a2.93,2.93,0,0,0,0-.64.39.39,0,0,0-.14-.2.32.32,0,0,0-.2-.07.54.54,0,0,0-.29.08,1.61,1.61,0,0,0-.4.43v2a1.18,1.18,0,0,0,.08.52.41.41,0,0,0,.33.15v.14H61.06V52.5a.46.46,0,0,0,.34-.15,1.13,1.13,0,0,0,.07-.52V49.71a1.06,1.06,0,0,0-.08-.53.47.47,0,0,0-.32-.14V48.9Z"/><path class="cls-1" d="M70.72,50.64H68.66a2,2,0,0,0,.4,1.18.84.84,0,0,0,.67.33.78.78,0,0,0,.44-.13,1.78,1.78,0,0,0,.42-.49l.14.09a2.29,2.29,0,0,1-.67.88,1.47,1.47,0,0,1-.85.26,1.42,1.42,0,0,1-1.26-.64,2.25,2.25,0,0,1-.35-1.28,2.12,2.12,0,0,1,.51-1.49,1.57,1.57,0,0,1,1.19-.56,1.28,1.28,0,0,1,1,.47,2.12,2.12,0,0,1,.45,1.38Zm-1-.27a3.63,3.63,0,0,0-.07-.89.71.71,0,0,0-.22-.36.33.33,0,0,0-.22-.07.4.4,0,0,0-.34.2,1.76,1.76,0,0,0-.24,1v.14Z"/><path class="cls-2" d="M72.39,48.9v.48a2.21,2.21,0,0,1,.55-.45,1.17,1.17,0,0,1,.57-.14.9.9,0,0,1,.6.2,1,1,0,0,1,.32.5,3.9,3.9,0,0,1,.06.88v1.46a1.19,1.19,0,0,0,.08.54.48.48,0,0,0,.33.13v.14H73V52.5a.39.39,0,0,0,.3-.18,1.14,1.14,0,0,0,.06-.5V50.16a2.71,2.71,0,0,0,0-.58.34.34,0,0,0-.12-.19.3.3,0,0,0-.19-.07c-.23,0-.44.16-.64.49v2a1.14,1.14,0,0,0,.08.53.41.41,0,0,0,.29.14v.14H70.86V52.5a.46.46,0,0,0,.34-.15,1.12,1.12,0,0,0,.07-.52V49.71a1.06,1.06,0,0,0-.08-.53.47.47,0,0,0-.32-.14V48.9Z"/><path class="cls-2" d="M76.5,47.53V48.9h.89v.4H76.5v2.31a1.93,1.93,0,0,0,0,.42.33.33,0,0,0,.11.15.25.25,0,0,0,.14.05c.17,0,.34-.13.49-.4l.12.09a1.1,1.1,0,0,1-1.05.77,1,1,0,0,1-.6-.19.9.9,0,0,1-.31-.45,3.89,3.89,0,0,1,0-.74v-2h-.49v-.14a5.12,5.12,0,0,0,.86-.75,4.5,4.5,0,0,0,.62-.88Z"/><path class="cls-2" d="M32.19,37.51a.25.25,0,0,1-.1.1"/><path class="cls-2" d="M33.13,30.18a.2.2,0,1,0-.2-.2.2.2,0,0,0,.2.2Z"/><path class="cls-2" d="M42.22,21.89H35.15V27.6a1.3,1.3,0,0,0,.56,1.18l2.72,1.63a.33.33,0,0,0,.25.11.33.33,0,0,0,.22-.09l2.76-1.65a1.29,1.29,0,0,0,.56-1.18V21.89ZM37.5,23.54h-.61V22.08h.61v1.46Zm-.44.51.09-.09-.05-.1h.11l.07-.12.07.12h.12l-.05.1.09.09-.11,0v.12l-.11-.08-.1.08v-.12l-.11,0Zm-1.71,1.82V24.48h.74v1.39Zm.12-2h.11l.07-.12.07.12h.12l-.05.1.09.09-.11,0v.12l-.11-.08-.11.08v-.12l-.11,0,.09-.09-.05-.1Zm.84,1.41h.11l.07-.12.07.12h.12l-.05.1.09.09-.11,0v.12l-.11-.08-.1.08v-.12l-.11,0,.09-.09-.05-.1Zm.49-1.12s-.05,0-.07,0-.09.11-.15.11-.07,0-.07,0,.08-.07.12-.1c-.46,0-.47.21-.54.21s.1-.22.16-.29c-.09,0-.15-.13-.25-.19s.07,0,.13,0,0-.1.14-.1.15.2.18.2,0-.2.14-.2.46.52.23.52,0-.07,0-.09Zm-.53-1.53.09-.09-.05-.1h.11l.07-.12.07.12h.12l-.05.1.09.09-.11,0v.12l-.11-.08-.1.08v-.12l-.11,0Zm-.19-.55v1.46h-.74V22.08Zm1.41,7.55-1.69-1a1.22,1.22,0,0,1-.46-.94V26.06H37.5v3.56Zm-.61-3.75V24.48h.61v1.39Zm2.79,3.87-.78.47h0a.33.33,0,0,1-.41,0l-.78-.46V26.06h2v3.68Zm0-3.87h-2V22.08h2v3.79ZM42,27.67a1.21,1.21,0,0,1-.46.94l-1.69,1V26.06H42v1.61Zm0-1.8H39.87V22.08H42v3.79Z"/><path class="cls-2" d="M37.39,27.37s-.27.09-.2.08a.77.77,0,0,1,.22-.29c0-.09-.13,0-.25.05.4-.58.14-.34-.08-.3.36-.39.27-.38,0-.26.21-.17.25-.36.22-.42-.2.26-.37.22-.37.46a1,1,0,0,1-.14.51c-.1.11,0-.43-.3-.43-.09,0-.3,0-.36.1s.14.14.14.2.05.21,0,.21-.2-.2-.2-.29,0-.07,0-.21a.77.77,0,0,0-.52-.55c0,.16.21.2.21.4-.09,0-.21-.17-.21-.06s.13.12.13.21-.15,0-.15.06.08.07.1.15-.12,0-.13,0,0,.06.06.09,0,.07,0,.2c0,.45.28.66.49.66s.12-.1.14-.15.08,0,.08.1-.14.08-.14.2.23,0,.23.17a2.12,2.12,0,0,1,0,.29c0,.06.24-.08.22-.1s.05.19.16.18.08-.17.14-.19.21.16.21.08-.09-.12-.09-.27.29-.11.25-.18-.07,0-.1-.12-.23-.33,0-.15.32-.44.31-.48Z"/><path class="cls-2" d="M44.93,28.86a.21.21,0,1,0-.23-.21.22.22,0,0,0,.23.21Z"/><path class="cls-2" d="M44,29.42a.21.21,0,1,0-.23-.21.22.22,0,0,0,.23.21Z"/><path class="cls-2" d="M32.81,30.71a.21.21,0,1,0-.23-.2.22.22,0,0,0,.23.2Z"/><path class="cls-2" d="M33.54,30.77a.21.21,0,1,0-.23-.2.22.22,0,0,0,.23.2Z"/><path class="cls-2" d="M53.66,21a1.45,1.45,0,0,1,.17,1.54c-.14,0-.11-.19-.14-.28a1.85,1.85,0,0,1-.22-1.57c.16,0,.1.22.19.31Z"/><path class="cls-2" d="M24.13,21.58a2.21,2.21,0,0,0,0,1c-.06.06,0-.06-.11,0-.48-.35-.26-1-.38-1.52a.1.1,0,0,1,.12,0,.88.88,0,0,1,.37.61Z"/><path class="cls-2" d="M54.72,21.62c.07.14-.06.27-.16.34a.32.32,0,0,1-.31-.14.29.29,0,0,1,.15-.32.32.32,0,0,1,.32.12Z"/><path class="cls-2" d="M23.38,22.16a.37.37,0,0,1-.16.27c-.07,0-.19,0-.23-.06a.23.23,0,0,1,0-.26.29.29,0,0,1,.23-.11c.09,0,.17.06.21.16Z"/><path class="cls-2" d="M55.2,22.37a.28.28,0,0,1,0,.2.28.28,0,0,1-.33.11.34.34,0,0,1-.14-.21.38.38,0,0,1,.21-.22.39.39,0,0,1,.26.12Z"/><path class="cls-2" d="M54.5,22.39c.1,0,0,.17,0,.25s-.15.16-.26.12-.13-.06-.16-.15a.27.27,0,0,1,.17-.29.3.3,0,0,1,.23.06Z"/><path class="cls-2" d="M53.6,22.57c0,.14,0,.31-.15.34a.23.23,0,0,1-.28-.17.29.29,0,0,1,.18-.3.33.33,0,0,1,.25.14Z"/><path class="cls-2" d="M24.72,22.64c0,.12-.09.2-.16.26a.25.25,0,0,1-.25-.14c-.09-.09,0-.16,0-.24a.23.23,0,0,1,.36.11Z"/><path class="cls-2" d="M24,22.67a.25.25,0,0,1-.14.24.22.22,0,0,1-.25-.11.21.21,0,0,1,.11-.29c.14,0,.22.07.27.16Z"/><path class="cls-2" d="M50.61,22.72a2.6,2.6,0,0,1,.25.89c0,.24,0,.55-.14.71-.17-.06-.18-.27-.3-.39a2.16,2.16,0,0,1,0-1.37c.1,0,.1.09.14.15Z"/><path class="cls-2" d="M23.4,22.87c0,.15-.07.22-.16.31s-.25-.07-.31-.17a.31.31,0,0,1,.16-.3.32.32,0,0,1,.31.16Z"/><path class="cls-2" d="M52.56,23.23a1.8,1.8,0,0,1,.06,1.19l-.07.06a4.86,4.86,0,0,1-.5-1,1.66,1.66,0,0,1,.15-.71c.09-.06.14,0,.17.09a.49.49,0,0,0,.2.37Z"/><path class="cls-2" d="M54.12,23a.32.32,0,0,1-.19.3.22.22,0,0,1-.28-.15.27.27,0,0,1,.13-.3c.14-.07.27,0,.33.15Z"/><path class="cls-2" d="M24,23.39a.27.27,0,0,1-.19.24c-.1.07-.17-.05-.26-.09a.3.3,0,0,1,0-.29c0-.07.12-.07.2-.1s.22.11.25.24Z"/><path class="cls-2" d="M24.54,23.33c0,.12-.09.19-.14.25s-.22-.06-.28-.15,0-.2.14-.27.22.06.28.17Z"/><path class="cls-2" d="M54.46,23.29c0,.16-.26.32-.28.48a1.25,1.25,0,0,1-.76.7.59.59,0,0,1-.28.16c0-.25.2-.47.33-.7a1.83,1.83,0,0,1,1-.65Z"/><path class="cls-2" d="M23.75,23.81a4.62,4.62,0,0,0,.51.58.1.1,0,0,1-.09.12c-.61,0-1-.66-1.31-1.09,0-.14.2,0,.28,0,.21.16.44.21.6.42Z"/><path class="cls-2" d="M54.63,24a1.59,1.59,0,0,1-.77,1.34c-.14,0-.28.19-.42.1A6.25,6.25,0,0,1,54.54,24Z"/><path class="cls-2" d="M52.27,24.35a.3.3,0,0,1-.21.36c-.14,0-.22-.1-.28-.2a.26.26,0,0,1,.17-.27.2.2,0,0,1,.15,0c.07,0,.11.09.17.15Z"/><path class="cls-2" d="M23.07,24.46a7.19,7.19,0,0,1,.67.58c-.16.11-.36,0-.54,0-.42-.15-.7-.51-1.13-.63,0-.14.17-.09.26-.12a2.26,2.26,0,0,1,.75.16Z"/><path class="cls-2" d="M36.28,20.78c-.69-.27-1.15.45-1.85.36-.09,0-.06.14-.11.2s-.1,0-.14,0c0-.3-.14-.57-.17-.86-.07-.12,0-.3-.1-.42-.39-1.08,1-.26,1.23-.89s-.46-.61-.67-1V18c-.2-.2-.41-.26-.53-.52a1.8,1.8,0,0,0,0-1c0-.07-.06-.17-.17-.14-.23.32-.41.58-.63.9a6.61,6.61,0,0,0-.73-.55c-.19,0-.36-.21-.57-.14a.17.17,0,0,0,0,.19,1.78,1.78,0,0,0,.6,1.22l0,.19a5.6,5.6,0,0,0-.22,1.64,9.09,9.09,0,0,1-2.68,3.76A5.08,5.08,0,0,0,28,26.25c0,.17,0,.39-.11.51a4.23,4.23,0,0,1-1.15-.61c-.57-.4-1.38-.35-1.75-1.07-.15-.29,0-.57.17-.78a1.44,1.44,0,0,0,.14-1.59s-.06,0-.1.06c0,.73-.62,1.24-.39,2.05,0,.24.17.38.23.61a1.88,1.88,0,0,1-.28-.06,3.05,3.05,0,0,0-.83-.11c-.57.26-1.34-.06-1.8.46-.07,0-.17,0-.15.14.27,0,.53.07.8.06.43.07.71-.29,1-.45h.07c.12-.12.33,0,.49-.07a5,5,0,0,1,2,.84v0c-.25.11-.53.19-.78.32a1.67,1.67,0,0,0-.69.83c-.2.31.06.58.19.84s0,.27.14.32c.39-.42,0-.94.09-1.43a1,1,0,0,1,.8-.64c.7-.3,1.21.27,1.77.6a8.44,8.44,0,0,1-.06,1.68,1.52,1.52,0,0,1-.58.09,10.53,10.53,0,0,0-2.61.91c-.39.14-.86.12-1.26.27a3.07,3.07,0,0,0,1,0c1.21-.17,2.13-1.11,3.44-.94l0,0a2.91,2.91,0,0,1-.58.81c0-.14,0-.25-.17-.32a.23.23,0,0,0-.28.1.17.17,0,0,0,0,.19.4.4,0,0,0,.27.17c0,.11-.16.16-.23.26-.34.58-1,.35-1.46.76-.06.09-.28.14-.19.27A1.85,1.85,0,0,0,26.45,31c.46-.51.94-1,1.39-1.48a1.48,1.48,0,0,1-.27,1.13,1.43,1.43,0,0,0-.33-.19.3.3,0,0,0-.22.25.73.73,0,0,0,.18.25,4.36,4.36,0,0,1-1.43.46,24.43,24.43,0,0,1-2.69.2,6,6,0,0,1-1.33,0c-.47.09-1-.06-1.36.2,0,.06,0,.12,0,.19.57.37,1.35.07,2,.19h4.86a2.18,2.18,0,0,0,1-.19,3.61,3.61,0,0,0,1.3-1.64,2.55,2.55,0,0,0,.26-.74,1.07,1.07,0,0,1,.93-.76,5.67,5.67,0,0,1-.21,1.89c-.07.4-.33.78-.17,1.21,0,.2.25.2.41.22,1.49,0,3-.09,4.56,0a3.73,3.73,0,0,0,.84.12s.11,0,.07-.12a.47.47,0,0,0-.3-.35c0-.07-.14,0-.17-.1a5.17,5.17,0,0,0-2.66-.2,2,2,0,0,1-1.37-.14c-.18-.22,0-.93,0-.93a17.89,17.89,0,0,1,.76-2.4,2.16,2.16,0,0,0,.07-.57,2.42,2.42,0,0,0,.07-.84A5.78,5.78,0,0,1,33,25.57c.08-.19.14-.38.21-.57a1.86,1.86,0,0,1,.25-.65c.4.26.8.25,1,.7l.17,1c0,.06,0,.19.14.11.32-.21.22-.68.22-1s-.2-.57-.31-.91a1.49,1.49,0,0,1-.23-.36c0-.27-.65-.46-.51-.8a1,1,0,0,1,.42-.71.13.13,0,0,1,.06.09l.15-.1,0-1c.4,0,1,0,1.4,0,.11,0,.2.12.32.14l.1-.14,1-.19c-.42,0-.68-.44-1.09-.44Z"/><path class="cls-2" d="M37.37,21.22l.09,0-.09,0Z"/><path class="cls-2" d="M26.62,24.68a.27.27,0,0,1-.19.29c-.1,0-.17,0-.23-.15s.07-.24.17-.29.22,0,.25.15Z"/><path class="cls-2" d="M25.82,24.68a.27.27,0,0,1,0,.29c-.09.07-.22.14-.3,0s-.15-.16-.09-.26.23-.16.33-.06Z"/><path class="cls-2" d="M43,24.82v0"/><path class="cls-2" d="M52.39,25c0,.14-.06.24-.16.29s-.28-.06-.28-.22a.24.24,0,0,1,.44-.06Z"/><path class="cls-2" d="M53,25c0,.06.12.16,0,.22a.46.46,0,0,0-.12.1.24.24,0,0,1-.3-.15c0-.14.09-.2.18-.26S53,25,53,25Z"/><path class="cls-2" d="M22.73,25.16a.24.24,0,0,1-.33.16.51.51,0,0,1-.1-.16.23.23,0,0,1,.14-.21.3.3,0,0,1,.3.21Z"/><path class="cls-2" d="M26.88,25.37c0,.1-.12.19-.21.24a.32.32,0,0,1-.27-.17.25.25,0,0,1,.15-.25.28.28,0,0,1,.33.19Z"/><path class="cls-2" d="M26.16,25.28a.19.19,0,0,1,0,.2c-.07.06-.19.17-.31.1s-.16-.11-.14-.24a.55.55,0,0,1,.19-.15c.1,0,.15,0,.22.09Z"/><path class="cls-2" d="M54.93,25.43a.33.33,0,0,1-.16.24.24.24,0,0,1-.27-.06c-.07,0,0-.12,0-.19a.42.42,0,0,1,.23-.16.46.46,0,0,1,.25.17Z"/><path class="cls-2" d="M55.72,25.54a.31.31,0,0,1-.23.22c-.07,0-.21,0-.18-.15a.21.21,0,0,1,.42-.07Z"/><path class="cls-2" d="M24.13,25.72A.24.24,0,0,1,24,26c-.09,0-.17,0-.24-.06a.21.21,0,0,1-.06-.25c0-.11.14-.09.21-.14a.3.3,0,0,1,.23.15Z"/><path class="cls-2" d="M24.74,25.83c0,.1-.07.14-.1.21a.21.21,0,0,1-.22,0c-.09-.07-.19-.19-.1-.3s.36-.09.42.06Z"/><path class="cls-2" d="M54.2,25.77c0,.12-.1.21-.17.29a.21.21,0,0,1-.25-.15.26.26,0,0,1,.14-.24.27.27,0,0,1,.28.1Z"/><path class="cls-2" d="M55.21,26c0,.11,0,.24-.14.31a.35.35,0,0,1-.3-.05.23.23,0,0,1,0-.26.29.29,0,0,1,.3-.15c.09,0,.11.11.18.15Z"/><path class="cls-2" d="M23.66,26.22c0,.1-.06.12-.1.17a.25.25,0,0,1-.25,0c-.09,0,0-.17,0-.24.11-.21.33-.06.38.09Z"/><path class="cls-2" d="M54.44,26.46s0,.09,0,.11a.94.94,0,0,1-1-.05,3.79,3.79,0,0,0-.49-.27c.06-.16.28-.15.44-.19.36,0,.64.38,1,.4Z"/><path class="cls-2" d="M24.26,26.35c0,.1,0,.14-.07.21s-.15,0-.21,0a.21.21,0,1,1,.28-.24Z"/><path class="cls-2" d="M25.34,26.42c0,.11,0,.21-.12.27s-.16,0-.23,0-.17-.19-.06-.29.33-.09.42.05Z"/><path class="cls-2" d="M39.6,26.95c0,.25-.43,0-.38.29a1.91,1.91,0,0,0,.25.7c.12.17.06.42,0,.63a1.12,1.12,0,0,1-.47.4c-.35,0-.87.18-1-.26a1.76,1.76,0,0,1-.2-.59s.08,0,.12-.06-.09-.13-.08-.21c.4-.07-.16-.42.18-.45.28.29.74.2,1,.52a1,1,0,0,0,.18.15c0-.29-.19-.59-.23-.91a.41.41,0,0,1,.14-.41c.21-.17.39.07.5.2Z"/><path class="cls-2" d="M26.43,26.87c0,.12-.06.2-.14.26s-.17-.07-.22-.14.05-.19.12-.25a.27.27,0,0,1,.23.12Z"/><path class="cls-2" d="M34,27a1.7,1.7,0,0,1-.15,1.39c0,.1,0,.26-.11.25-.33-.46-.09-1.11,0-1.59,0-.12.17-.17.21,0Z"/><path class="cls-2" d="M44.59,27.23a1.39,1.39,0,0,1,0,1.16l-.1.1a2.84,2.84,0,0,1-.28-.88,3,3,0,0,0,.15-.66c.17,0,.16.19.21.29Z"/><path class="cls-2" d="M27.39,27.37c-.07.15-.28.19-.42.29a1.47,1.47,0,0,1-1.1.21,1.34,1.34,0,0,1,1.41-.58c0,.05.09,0,.11.09Z"/><path class="cls-2" d="M22.32,27.82A3.33,3.33,0,0,1,23.17,29s.16.06.11.16-.2-.07-.33,0a1.37,1.37,0,0,1-.75-1.28s.07,0,.12,0Z"/><path class="cls-2" d="M44.11,28.2c0,.12,0,.25-.11.29a.23.23,0,0,1-.28-.15c0-.09,0-.14.06-.2a.22.22,0,0,1,.33.06Z"/><path class="cls-2" d="M49.32,28.86a6.15,6.15,0,0,1,.09-.68.45.45,0,0,0,0-.26c.3-.4.9-.27,1.37-.24a2.63,2.63,0,0,0,.62.14.45.45,0,0,1,.31-.06c.39-.21.14-.67.16-1l-.15-.37a1.42,1.42,0,0,1-.1-.25c-.08-.09-.12-.25-.2-.34a5,5,0,0,0-1-1.29,5.21,5.21,0,0,0-2.6-1.6,4.31,4.31,0,0,0-2.84.41.71.71,0,0,1-.48-.52,2.46,2.46,0,0,1,.24-1.32,4.9,4.9,0,0,1,.33-.83,8.85,8.85,0,0,0,.51-2.14,1.12,1.12,0,0,0-.67-1,.67.67,0,0,0-.68.14,1.81,1.81,0,0,1-.8.72c0,.21.23.07.32.15.27,0,.58,0,.8.14a2.11,2.11,0,0,1-.52,1.28A9.81,9.81,0,0,0,43,21.85l0-.05.06,3a3.46,3.46,0,0,0,1.62,1.65c.4.32.89.71,1.42.42.28-.09.31.31.44.47.15.46-.18.78-.21,1.2l-.32.68a8.92,8.92,0,0,1-1.27,2.1c-.19,0-.3.2-.48.21s-.3,0-.42.09c-.38.16-.92.06-1.18.42a.17.17,0,0,0,.1.06c.75,0,1.59.06,2.39,0a.3.3,0,0,0,.2-.24c-.11-.21,0-.4.14-.56s.26-.49.35-.77c.26-.51.56-1,.84-1.51l.38-.62a4.4,4.4,0,0,1,.38-.7,1.61,1.61,0,0,0,.22-.33c0-.12,0-.17-.12-.26.09-.09.22-.06.33-.09a1.4,1.4,0,0,1,.69.82l.11.32,0,.15,0,.41,0,.39a8.85,8.85,0,0,1-.11,1.8c-.21.72-1,.65-1.63.81-.15.1-.43.05-.43.3a11,11,0,0,0,2.32,0c.12,0,.15-.16.21-.27s.18-.3.14-.47,0-.45,0-.68a.39.39,0,0,0,0-.24c.1-.36.07-.79.15-1.14l.05-.47Z"/><path class="cls-2" d="M55.39,28.37a3.08,3.08,0,0,1-1.5,1.39s-.1,0-.12,0c.42-.45.64-1.14,1.3-1.3a.4.4,0,0,1,.33,0Z"/><path class="cls-2" d="M21.71,29c-.06,0,0,.16-.12.17a.2.2,0,0,1-.26-.11.22.22,0,0,1,.16-.27c.1.05.2.09.22.21Z"/><path class="cls-2" d="M25.27,29.16c0,.11-.09.11-.15.14a1.35,1.35,0,0,1-1.42-.36c0-.05,0-.1,0-.11.51.12,1.1,0,1.52.33Z"/><path class="cls-2" d="M22.39,29a.33.33,0,0,1,0,.19.27.27,0,0,1-.31.11.4.4,0,0,1-.16-.16.3.3,0,0,1,.21-.24.37.37,0,0,1,.23.1Z"/><path class="cls-2" d="M33.95,29.06c0,.11-.07.19-.15.24a.24.24,0,0,1-.26-.1.18.18,0,0,1,.09-.24c.11,0,.28,0,.32.1Z"/><path class="cls-2" d="M55.85,29.11c0,.12-.07.19-.16.26a.27.27,0,0,1-.23,0c0-.06-.09-.11-.06-.2a.26.26,0,0,1,.28-.15,1.45,1.45,0,0,1,.17.12Z"/><path class="cls-2" d="M56.67,29.06c.07.11,0,.2,0,.29a.17.17,0,0,1-.22.07c-.07-.07-.17-.11-.19-.22s.11-.17.19-.21.17.07.27.07Z"/><path class="cls-2" d="M21.2,29.42c0,.09-.06.14-.09.21s-.12.08-.2.05a.36.36,0,0,1-.18-.2.32.32,0,0,1,.22-.25.32.32,0,0,1,.25.19Z"/><path class="cls-2" d="M47.17,29.42a.36.36,0,0,1,0,.16c-.07.1-.17.19-.3.12s-.16-.15-.12-.26a.24.24,0,0,1,.41,0Z"/><path class="cls-2" d="M23.18,29.6c0,.09-.06.17-.17.19s-.15-.09-.21-.14,0-.22.1-.29a.23.23,0,0,1,.28.24Z"/><path class="cls-2" d="M22,29.63a.26.26,0,0,1-.12.27.29.29,0,0,1-.33-.17.35.35,0,0,1,.22-.29c.11,0,.17.12.23.19Z"/><path class="cls-2" d="M48,29.6a.25.25,0,0,1-.14.3c-.15.05-.27-.07-.33-.17s.07-.24.22-.26a.29.29,0,0,1,.25.14Z"/><path class="cls-2" d="M22.58,29.65c0,.09,0,.12-.06.19s-.1.07-.17,0-.15-.09-.16-.17.07-.19.16-.24a.23.23,0,0,1,.23.17Z"/><path class="cls-2" d="M55.18,29.75A.37.37,0,0,1,55,30c-.1,0-.16-.06-.23-.1s0-.16,0-.22a.25.25,0,0,1,.46.12Z"/><path class="cls-2" d="M56.11,29.8a.32.32,0,0,1-.3.21c-.11,0-.23-.14-.15-.29s.07-.1.15-.11a.24.24,0,0,1,.3.19Z"/><path class="cls-2" d="M50.25,29.89c.06.16-.09.21-.18.29a.56.56,0,0,1-.23-.1.29.29,0,0,1,.17-.32.3.3,0,0,1,.25.14Z"/><path class="cls-2" d="M46.86,30c.06,0,0,.11,0,.15s-.17.17-.28.1a.21.21,0,0,1-.12-.24.23.23,0,0,1,.38,0Z"/><path class="cls-2" d="M47.55,30.13a.17.17,0,0,1-.1.2c-.09.09-.19,0-.27,0a.2.2,0,0,1,0-.19.28.28,0,0,1,.16-.1c.09,0,.18,0,.22.12Z"/><path class="cls-2" d="M26.62,30.14c.07.07,0,.16,0,.24a.24.24,0,0,1-.31.06c-.12,0-.11-.21-.09-.31s.07-.11.17-.11a.43.43,0,0,1,.25.12Z"/><path class="cls-2" d="M51.57,30.19c0,.12-.1.17-.18.2s-.22-.06-.28-.16.07-.12.1-.19.28,0,.37.15Z"/><path class="cls-2" d="M50.91,30.19c0,.12-.09.19-.14.25a.25.25,0,0,1-.27,0c-.06,0-.06-.11-.06-.19s.11-.14.2-.16a.32.32,0,0,1,.27.15Z"/><path class="cls-2" d="M56.47,30.34c0,.17-.2.09-.28.14a2,2,0,0,1-1.68-.11c0-.16.22-.1.32-.16.53-.34,1.07.07,1.6.1l0,0Z"/><path class="cls-2" d="M22.71,30.19l0,.09a2,2,0,0,1-1.59.29l0-.07a2.24,2.24,0,0,1,1.65-.34l0,0Z"/><path class="cls-2" d="M52.83,30.27a.28.28,0,0,1-.12.24.25.25,0,0,1-.32-.14c0-.1.06-.2.16-.24s.23,0,.28.14Z"/><path class="cls-2" d="M24.92,30.32c0,.1,0,.2-.15.25a.27.27,0,0,1-.31-.16c0-.14.06-.17.12-.24s.26,0,.33.15Z"/><path class="cls-2" d="M24,30.39c0,.09,0,.14-.06.2a.23.23,0,0,1-.25,0c-.09-.07-.17-.16-.14-.3a.67.67,0,0,1,.2-.14.28.28,0,0,1,.25.2Z"/><path class="cls-2" d="M53.7,30.67a.27.27,0,0,1-.2.22.28.28,0,0,1-.24-.12.2.2,0,0,1,0-.24s.11,0,.16-.06a.26.26,0,0,1,.22.2Z"/><path class="cls-2" d="M23.13,30.54c0,.1,0,.14-.06.21a1.84,1.84,0,0,1-.27.54c-.23.29-.57.29-.9.37l0-.1a3.24,3.24,0,0,1,1.25-1l0,0Z"/><path class="cls-2" d="M53.08,30.81c0,.15-.1.17-.19.24a.28.28,0,0,1-.25-.15c0-.14.09-.19.16-.25a.25.25,0,0,1,.27.16Z"/><path class="cls-2" d="M24.55,30.81s0,0,0,.06-.11.17-.19.24a.33.33,0,0,1-.27-.12.21.21,0,0,1,.12-.29c.11,0,.26,0,.3.11Z"/><path class="cls-2" d="M55.35,31.18c.12,0,.15-.16.28-.19a.3.3,0,0,1,.3.14c0,.15-.06.22-.16.29s-.27-.07-.26.09a.38.38,0,0,1,.17.25c0,.05-.11,0-.15,0a1.56,1.56,0,0,1-.89-.77c0-.11-.28-.2-.15-.3a1.13,1.13,0,0,1,.85.49Z"/><path class="cls-2" d="M56.53,30.8a.19.19,0,0,1,0,.24c-.06.13-.25.07-.36.06s-.12-.12-.1-.22a.39.39,0,0,1,.19-.16.34.34,0,0,1,.28.09Z"/><path class="cls-2" d="M52.06,31.47a1.77,1.77,0,0,1,.27.5s-.09,0-.11,0c-.42-.24-1-.5-1.12-1,0,0-.14-.11-.12-.2a1.15,1.15,0,0,1,.85.35c.09.12.19.19.23.32Z"/><path class="cls-2" d="M23.86,31c0,.11-.05.2-.11.25a.28.28,0,0,1-.28-.1c-.09-.14.07-.25.17-.3s.16.09.22.15Z"/><path class="cls-2" d="M53.6,31.28c0,.07-.09.12-.12.17s-.2,0-.28,0-.09-.16,0-.22.33,0,.42.09Z"/><path class="cls-2" d="M56.67,31.46a.29.29,0,0,1-.17.31.33.33,0,0,1-.3-.11c-.06-.07,0-.15,0-.23a.31.31,0,0,1,.32-.09.65.65,0,0,1,.15.12Z"/><path class="cls-2" d="M48.13,33.17c0,.15-.27.11-.38.22a2.63,2.63,0,0,1-1.3.19V33.5a1.83,1.83,0,0,1,1.68-.34Z"/><path class="cls-2" d="M30.14,33.7a.24.24,0,0,1-.19.21.24.24,0,0,1-.21-.12c0-.15.07-.21.16-.27a.29.29,0,0,1,.23.19Z"/><path class="cls-2" d="M47.92,33.84a.35.35,0,0,1-.18.29c-.11,0-.18,0-.27-.09s0-.14,0-.2a.27.27,0,0,1,.49,0Z"/><path class="cls-2" d="M50.38,33.89a2,2,0,0,1-1.06.44h-.67l-.06-.05a2,2,0,0,1,1.79-.45v.07Z"/><path class="cls-2" d="M26.76,34.19a.22.22,0,0,1-.42.12.23.23,0,0,1,.1-.29c.14-.09.27.06.32.16Z"/><path class="cls-2" d="M27.38,34.31c0,.06,0,.1,0,.16a.2.2,0,0,1-.23,0,.16.16,0,0,1-.07-.21c0-.07.11-.06.15-.11a.34.34,0,0,1,.21.16Z"/><path class="cls-2" d="M22.65,35.57c-.12.15-.32,0-.46-.11-.43-.25-.42-.73-.85-1,0-.15.16,0,.25,0a1.72,1.72,0,0,0,.26.14c.42.24.52.63.8,1Z"/><path class="cls-2" d="M58.61,30.75a1,1,0,0,0-.93-.51.85.85,0,0,0-.69.51.63.63,0,0,0,.23.68.19.19,0,0,0,.25-.06c.06-.16-.11-.16-.14-.29a.41.41,0,0,1,.14-.43c.12-.12.33-.06.48-.06a.86.86,0,0,1,.37.36,1,1,0,0,1,0,.66,1.1,1.1,0,0,1-.76.62c-1,.15-12.26.1-12.26.1-1.32.12-2.82-.25-4,.45a2,2,0,0,0-.91,1.33,9,9,0,0,0-1,1l0,0c.06-.3.2-.56.26-.86a5.26,5.26,0,0,0,.32-.86,6.83,6.83,0,0,1,1.64-2.06c.31-.41.85-.34,1.32-.34a3.27,3.27,0,0,0,1.71.25.11.11,0,0,0,0-.09c-.17-.16-.46-.22-.65-.39-.49-.24-1,.07-1.48,0,0,0,0,0,0-.07a7.27,7.27,0,0,1,1.53-.82,10.48,10.48,0,0,1,1.34-.53c.19,0,.36-.16.53,0l.65-.17s0,0,.1,0a6.78,6.78,0,0,1,1.89,0l.09.07.59.15c.22,0,.32.28.56.3.12-.17-.14-.25-.2-.36a1.36,1.36,0,0,1,.83.12l-.12.14c-.07.14,0,.24.15.29s.15,0,.21-.06,0-.22,0-.32a11.76,11.76,0,0,1,2.63.74,2.1,2.1,0,0,0,.72.24,3.26,3.26,0,0,0-.94-.5c-.21-.12-.51-.14-.67-.31,0-.06.12,0,.16-.09a1.83,1.83,0,0,0,1.07-.7c0-.08.16-.05.15-.15s-.3,0-.44,0c-.52.1-.74.71-1.26.82l-1.9-.46a3.85,3.85,0,0,1-.92-.2l-.69-.06H47.37s0,0,0-.07c.44-.11.83-.37,1.27-.48l3.31-1.51a8.2,8.2,0,0,0,.94-1,.24.24,0,0,0-.14-.24.21.21,0,0,0-.25.05c-.15.11,0,.25,0,.39a2.09,2.09,0,0,1-.57.48s-3.41,1.53-3.41,1.53a8.52,8.52,0,0,1-1.5.56l-.72.11a.47.47,0,0,1-.31.29,2.91,2.91,0,0,1-.57.16,12.56,12.56,0,0,0-4.54,2.55,1.41,1.41,0,0,0,.12-.52,1,1,0,0,0-.14-.55c0-.07-.12-.27-.09-.34l-.18.12a1.73,1.73,0,0,0-.1,1.06c0,.22.22.48,0,.68a11.4,11.4,0,0,0-1.32,2.41c-.15,0-.22-.16-.28-.3a4.14,4.14,0,0,0,.88-1.81c.09-.06,0-.22.11-.3s.11-.4,0-.56c.08-.27-.36-.52-.08-.7l-.23.11c-.53.7.28,1.74-.33,2.41v0a2.09,2.09,0,0,1-.49.6c-.3-.12-.41-.46-.58-.71a1.1,1.1,0,0,1-.11-1.16c.11-.36-.07-.67-.11-1L37.86,31a1.43,1.43,0,0,0-.17,1.45c.12.22.14.53.32.72a4,4,0,0,0,.53.92c0,.12-.07.15-.14.21-.14-.09-.11-.29-.23-.37a9,9,0,0,0-1.58-2.27c0-.11-.14-.21-.07-.33a.91.91,0,0,0,.16-.95c0-.06-.1-.14-.09-.2L36.4,30c0,.43-.26.82-.14,1.28v0a23.35,23.35,0,0,0-4.11-2.48l-.11.31a8.57,8.57,0,0,1,1.32.68,9.2,9.2,0,0,1,4.77,4.85c0,.14.14.28,0,.42a6.72,6.72,0,0,0-.94-.94,1.81,1.81,0,0,0-.94-1.38c-.19-.27-.58-.3-.89-.39l-4.49,0c-3.65-.05-7,.11-10.61,0-.51,0-1.12-.22-1.27-.76a.83.83,0,0,1,0-.68.76.76,0,0,1,.63-.34.66.66,0,0,1,.42.35c0,.16-.14.31-.2.45s.06.15.15.11a.58.58,0,0,0,.32-.4c0-.09,0-.21,0-.27a.83.83,0,0,0-.58-.51,1,1,0,0,0-1,1.33,1.67,1.67,0,0,0,1.33,1l12,.05a25.86,25.86,0,0,1,3.68.1,1.42,1.42,0,0,1,1,.94s0,0-.09,0a5.34,5.34,0,0,0-3.5-.72,4.27,4.27,0,0,0-1.38.29.7.7,0,0,1-.6-.2A2,2,0,0,0,29.37,33s0,.07,0,.09c.6,0,1,.47,1.51.54.12,0,.22-.11.33,0a11.16,11.16,0,0,1-1.71.77c-.18,0-.28-.21-.43-.31-.23-.26-.67-.15-1-.17-.11,0-.21,0-.28,0a1,1,0,0,0,.53.41c.31.14.67,0,.95.17a1.16,1.16,0,0,1-.26.17c-.58.22-1.06.74-1.7.71a2.2,2.2,0,0,1-1.83-.6A1.24,1.24,0,0,0,24.26,34s-.09,0-.07.09c.27.16.48.48.75.67s.51,0,.67.24a2.19,2.19,0,0,0,.8.35,3.52,3.52,0,0,0,.64.17l-.09,0a10.56,10.56,0,0,1-3.68.36c-.37,0-.73-.12-1.1-.11a.69.69,0,0,0,.3.17.75.75,0,0,1-.33.1,2.25,2.25,0,0,0-.47.12,1.24,1.24,0,0,0-.53.12,2.51,2.51,0,0,1-.7.57c0,.05,0,.12,0,.12.23-.1.53,0,.76-.12.41,0,.64-.48,1-.67a1.63,1.63,0,0,1,1.26-.15c.25.06,0,.16,0,.32s.18.19.32.15a.21.21,0,0,1,.09-.06.28.28,0,0,0,0-.31c.17-.11.41,0,.59-.06.47,0,.94-.11,1.39-.12.07,0,.16-.09.23,0s-.16.11-.11.25.15.16.25.19.23-.14.18-.3-.12-.1-.18-.14c.26-.12.55-.16.81-.29a2.33,2.33,0,0,0,.52-.17c.16,0,.3-.16.44-.1a2.56,2.56,0,0,1-.26.6,3,3,0,0,0,0,2.16s.05,0,.07,0a3,3,0,0,1,.11-2c.17-1.06,1.26-1.37,2-1.76l0,.05a3.88,3.88,0,0,0-.47,1.73c0,.11,0,.22,0,.3a1.3,1.3,0,0,0,.46-.57c.09-.56-.23-1.25.33-1.66a8.67,8.67,0,0,1,3.13-.93s.12,0,.14,0c-.25.27-.6.54-.72.87a2.8,2.8,0,0,0-.21,2.15c.11.38-.22.6-.38.89-.08.11-.1.29-.17.41l.24,0a1.32,1.32,0,0,0,.42-.82.34.34,0,0,0,.24.25c.09-.14-.08-.24-.09-.37.2-.11.29.14.45.19a3.15,3.15,0,0,0,.75.17l.09-.09A1.53,1.53,0,0,0,33,36.47a2.49,2.49,0,0,1-.22-1.42,2.18,2.18,0,0,1,.25-.77,1.89,1.89,0,0,1,.35-.47,1.73,1.73,0,0,1,.78-.42h0a.06.06,0,0,0,0,0c-.33.26-.37.62-.57.94a1,1,0,0,0-.11,1.08c.07.16,0,.41.21.52a2.77,2.77,0,0,0,.26-.76c0-.41-.28-.79,0-1.19a1,1,0,0,1,.67-.55,3.8,3.8,0,0,1,1.86.55c.12.09.33.16.36.34a1,1,0,0,1-1.58.82.85.85,0,0,1-.2-.76.51.51,0,0,1,.54-.2c.12.06.23.19.39.11a.16.16,0,0,0,0-.2c-.14-.07-.18-.26-.37-.29A.8.8,0,0,0,35,34a.88.88,0,0,0-.28.87,1.06,1.06,0,0,0,.77.79A1.43,1.43,0,0,0,37,35.13a1.68,1.68,0,0,0,.27-.53,3.21,3.21,0,0,1,1.27,1.64,2.61,2.61,0,0,1,0,.62l.43,0a.41.41,0,0,1,0-.3,3.74,3.74,0,0,1,1.27-2c.21-.12.16.16.21.25a1.66,1.66,0,0,0,1.07.94,1.35,1.35,0,0,0,1.33-.43c.16-.3.36-.73.09-1A.85.85,0,0,0,42.3,34a.84.84,0,0,0-.68.46c0,.1,0,.21.07.26s.15,0,.18-.06.18-.27.33-.37a.38.38,0,0,1,.4.08.65.65,0,0,1,.17.48.75.75,0,0,1-.41.58,1.25,1.25,0,0,1-1.19-.11,2.74,2.74,0,0,1-.35-.55.91.91,0,0,1,0-.57,4.17,4.17,0,0,1,1.76-.62,1.26,1.26,0,0,1,.65.41c.57.58-.12,1.42.27,2.06.15,0,.15-.22.21-.35a2.19,2.19,0,0,0-.16-1.37,2.54,2.54,0,0,0-.47-.73.31.31,0,0,1,.15,0,3,3,0,0,1,.75.65,3.33,3.33,0,0,1,.48,2c-.1.37-.49.55-.8.68a1.15,1.15,0,0,0-.33.4c.15.09.36,0,.51-.06s.37-.39.53-.52,0,0,0,.07-.06.32.06.36a4.44,4.44,0,0,0,.11-.63,1.23,1.23,0,0,1,.24.62c.11.22.3.52.59.56.07-.11,0-.22,0-.32,0-.31-.3-.47-.47-.7-.43-.6-.23-1.53-.57-2.2a2.6,2.6,0,0,0-.67-.92l0-.05a7.31,7.31,0,0,1,1.67.3c.68.33,1.67.26,2,1.14a3.27,3.27,0,0,0,.7,1.34l0,0a.51.51,0,0,0,0-.46c-.07-.62-.62-.77-.9-1.29l0,0a8.4,8.4,0,0,1,.9.29A2.66,2.66,0,0,1,50,37a4.86,4.86,0,0,1-.46,2.12c0,.1-.21.21-.1.3.14-.1.16-.26.23-.37a3.46,3.46,0,0,0,.41-2.5c0-.16-.2-.29-.11-.45a.39.39,0,0,0,.21.11c.07,0,.19,0,.24-.14s.06-.16,0-.22a.34.34,0,0,0-.36-.09.61.61,0,0,0-.15.27,2.58,2.58,0,0,0-.44-.66l0,0c.56.19,1.06.46,1.63.61a.81.81,0,0,0,.43.14,12.31,12.31,0,0,0,1.52.39c.37,0,.68.14,1,0v0h0c-.14-.17-.43,0-.59-.14A9.27,9.27,0,0,1,51,35.76s.06,0,.1,0a.32.32,0,0,0,.2-.31.33.33,0,0,0-.28-.14.35.35,0,0,0-.19.21.31.31,0,0,0,.19.24s-.07,0-.11,0l-1.12-.51c-.14,0-.25-.14-.38-.16s-.57-.27-.85-.38a19.54,19.54,0,0,0-2.5-.93l-.53-.15-.93-.25a4.68,4.68,0,0,0-3.37.29c-.15-.05-.23.19-.31,0a1.74,1.74,0,0,1,1.69-.93c4.95-.05,9.58-.09,14.46-.16a1.56,1.56,0,0,0,1.42-.71,1.25,1.25,0,0,0,.09-1.14ZM39,35.33a1.11,1.11,0,0,0-.14.43l0,0c0-.19-.15-.3-.1-.5s-.1-.34-.19-.5.1-.29.19-.42c.17.07.23.24.36.39s-.09.37-.07.57Z"/><path class="cls-2" d="M52.38,34.55s.07,0,0,.11a2.58,2.58,0,0,1-1.65.52s-.1,0-.16,0,0-.06,0-.09a1.88,1.88,0,0,1,1.79-.58Z"/><path class="cls-2" d="M50.39,34.75c0,.17-.06.27-.2.34a.35.35,0,0,1-.27-.2c0-.1,0-.15.09-.21a.23.23,0,0,1,.38.07Z"/><path class="cls-2" d="M26.94,34.77a.25.25,0,0,1-.06.26.25.25,0,0,1-.22.06c-.09,0-.14-.11-.16-.19a.27.27,0,0,1,.16-.24c.1,0,.21,0,.28.1Z"/><path class="cls-2" d="M24.74,35.58v.09a1,1,0,0,1-.8-.19,1.65,1.65,0,0,0-.65-.62s-.07-.09,0-.11c.62,0,1,.5,1.46.83Z"/><path class="cls-2" d="M54.25,34.76c-.28.42-.53.94-1,1.13-.09,0-.16.12-.24,0a2.27,2.27,0,0,1,1.1-1.18.41.41,0,0,1,.17,0Z"/><path class="cls-2" d="M27.66,34.91c0,.14-.09.16-.17.24s-.15-.06-.21-.14.06-.17.12-.24a.26.26,0,0,1,.26.14Z"/><path class="cls-2" d="M55.81,35c-.11.16-.06.4-.17.57s-.46.61-.85.67c-.06-.12.09-.25.15-.36a1.77,1.77,0,0,1,.81-1l.06.07Z"/><path class="cls-2" d="M20.91,35.09a.25.25,0,0,1,0,.27.29.29,0,0,1-.28,0,.23.23,0,0,1-.1-.3c.07-.11.3-.17.38,0Z"/><path class="cls-2" d="M20.21,35.24c0,.06,0,.11,0,.17a.29.29,0,0,1-.17.15.26.26,0,0,1-.28-.16.24.24,0,0,1,.12-.26.25.25,0,0,1,.3.1Z"/><path class="cls-2" d="M21.67,35.32c0,.1,0,.27-.1.3s-.27,0-.37-.15a.28.28,0,0,1,.15-.25.34.34,0,0,1,.32.1Z"/><path class="cls-2" d="M23.69,35.48c0,.09,0,.21-.09.24s-.17,0-.23,0-.16-.14-.09-.22a.46.46,0,0,1,.17-.14c.07,0,.19,0,.23.1Z"/><path class="cls-2" d="M57,35.57c0,.09-.09.2-.19.2s-.22,0-.28-.14.06-.21.16-.25.28,0,.31.19Z"/><path class="cls-2" d="M54.73,35.63c0,.1-.1.18-.15.21a.3.3,0,0,1-.38-.19.32.32,0,0,1,.21-.22.32.32,0,0,1,.32.2Z"/><path class="cls-2" d="M56.26,35.6a.26.26,0,0,1-.11.21.28.28,0,0,1-.3-.05c-.11-.1,0-.19,0-.26s.32,0,.36.1Z"/><path class="cls-2" d="M20.59,35.82a.26.26,0,0,1-.15.31.28.28,0,0,1-.27-.17.23.23,0,0,1,.12-.26.28.28,0,0,1,.3.12Z"/><path class="cls-2" d="M54.12,36a.27.27,0,0,1-.17.32.25.25,0,0,1-.24-.09c0-.06-.11-.2,0-.26a.24.24,0,0,1,.42,0Z"/><path class="cls-2" d="M27.23,36.09c0,.14-.1.16-.14.24s-.15,0-.18,0-.14-.15-.1-.26.09-.1.16-.12.19.09.26.16Z"/><path class="cls-2" d="M56.77,36.18c0,.09,0,.12-.06.19a.33.33,0,0,1-.28.05c-.11-.06-.11-.16-.11-.27s.09-.11.17-.14a.28.28,0,0,1,.28.17Z"/><path class="cls-2" d="M56,36.21c0,.15-.09.22-.18.26s-.12,0-.14,0a3.29,3.29,0,0,1,.77.66v.1a1.66,1.66,0,0,1-1.22-.47c-.09-.06-.23-.06-.33-.15.16-.16.46-.1.68-.11.16-.17-.19-.3,0-.45s.12-.09.22-.06a.42.42,0,0,1,.18.17Z"/><path class="cls-2" d="M51,36.23c0,.06,0,.14-.06.2a.25.25,0,0,1-.27.05c-.06-.09-.16-.16-.12-.29a.26.26,0,0,1,.46,0Z"/><path class="cls-2" d="M23.38,36.66c0,.11-.09.19-.21.2a.24.24,0,0,1-.22-.15c0-.09,0-.14.06-.2s.38,0,.37.15Z"/><path class="cls-2" d="M24.38,36.5c0,.17-.18.27-.25.45a1.26,1.26,0,0,1-1,.82c0-.11.16-.25.21-.36a2.57,2.57,0,0,1,1-.91Z"/><path class="cls-2" d="M50.66,36.67c0,.14-.11.24-.21.29s-.2-.05-.26-.1,0-.2,0-.3.36,0,.46.11Z"/><path class="cls-2" d="M51.43,36.76a.31.31,0,0,1-.22.27s-.09,0-.12,0a.27.27,0,0,1-.16-.22c.06-.06.09-.16.17-.17s.3,0,.33.15Z"/><path class="cls-2" d="M26.29,36.75a.27.27,0,0,1-.18.26.24.24,0,0,1-.24-.15c0-.11.09-.19.15-.25s.19.06.27.14Z"/><path class="cls-2" d="M27.14,36.8a.29.29,0,0,1-.23.21c-.09,0-.19,0-.22-.15s.09-.19.17-.25a.26.26,0,0,1,.28.19Z"/><path class="cls-2" d="M54.08,37.67c.06,0,.17.11.15.2-.2.09-.36-.14-.54-.17a2.54,2.54,0,0,1-.64-1c.11-.11.23,0,.33.06a2.43,2.43,0,0,1,.7.91Z"/><path class="cls-2" d="M54.54,36.8a.31.31,0,0,1,0,.27c-.07.12-.23.1-.34.07s-.17-.17-.1-.29.15-.12.23-.16.15.06.23.1Z"/><path class="cls-2" d="M28.28,37.12c0,.1,0,.25-.09.31a.24.24,0,0,1-.3-.15c-.06-.15.07-.17.15-.25s.16,0,.23.09Z"/><path class="cls-2" d="M51.39,37.93a1.82,1.82,0,0,1,.32.88c0,.09.06.17,0,.24h0a2.77,2.77,0,0,1-.89-1.52.1.1,0,0,1,0-.12c.12-.11.21.11.33.15l.35.37Z"/><path class="cls-2" d="M29.88,37.5s0,0,0,0a1.64,1.64,0,0,1-1.75.22.09.09,0,0,1,.06-.11,2.56,2.56,0,0,1,1.09-.24l.59.1Z"/><path class="cls-2" d="M27.07,37.57c-.42.26-.8.77-1.32.9-.1,0-.16.17-.28.1a1.82,1.82,0,0,1,1.6-1.09v.1Z"/><path class="cls-2" d="M50.66,38.13a.2.2,0,0,1-.1.26.17.17,0,0,1-.23,0c-.11-.05-.11-.16-.11-.25s.12-.1.18-.14.2,0,.26.12Z"/><path class="cls-2" d="M49.64,38.19a.69.69,0,0,1-.44.32A1.89,1.89,0,0,1,48,38.36c0-.1.14-.06.2-.12a2.68,2.68,0,0,1,1.26-.06.13.13,0,0,1,.16,0Z"/><path class="cls-2" d="M27.07,38.55s0,.16-.15.2a.26.26,0,0,1-.25,0c0-.08-.11-.14,0-.22s.12-.11.2-.14a.26.26,0,0,1,.25.21Z"/><path class="cls-2" d="M27.8,38.66a.46.46,0,0,1-.17.24.27.27,0,0,1-.25-.09.3.3,0,0,1,0-.25c0-.06.11-.07.17-.11s.23.11.28.21Z"/><path class="cls-2" d="M50.43,38.78a.33.33,0,0,1-.09.24.21.21,0,0,1-.27.05c-.09,0-.11-.11-.15-.17s0-.16.09-.25a.27.27,0,0,1,.42.14Z"/><path class="cls-2" d="M51,38.76c0,.06,0,.12,0,.17s-.12.22-.27.16-.11-.07-.15-.1a.24.24,0,0,1,.15-.34c.11,0,.19.06.25.1Z"/><path class="cls-2" d="M27.35,39.12a.34.34,0,0,1-.12.34c-.14,0-.31,0-.36-.14A.33.33,0,0,1,27,39a.3.3,0,0,1,.33.16Z"/><path class="cls-2" d="M28.05,39.07a1.14,1.14,0,0,1-.44,1c-.2,0-.39.22-.59.1v-.06a13.08,13.08,0,0,1,1-1Z"/><path class="cls-2" d="M48.49,39.36c0,.07,0,.14-.07.2s-.21,0-.3,0-.1-.16-.06-.25a.25.25,0,0,1,.16-.14c.11,0,.21.09.27.17Z"/><path class="cls-2" d="M29.29,39.93c.17.29.07.67.17,1-.21,0-.3-.21-.43-.33a3.89,3.89,0,0,1-.36-1.3.06.06,0,0,1,.09,0,3.12,3.12,0,0,1,.47.52c0,.09.07.09.06.16Z"/><path class="cls-2" d="M49.11,39.46c0,.1-.11.12-.17.19a.45.45,0,0,1-.23-.11c0-.12.06-.16.12-.22a.2.2,0,0,1,.28.15Z"/><path class="cls-2" d="M50.58,40.56s0,.11-.07.09h-.05a1.48,1.48,0,0,1-.67-1.18h.07a1.55,1.55,0,0,1,.72,1.11Z"/><path class="cls-2" d="M49.65,40.16a.29.29,0,0,1-.11.24c-.14,0-.35,0-.37-.16s.12-.19.19-.25a.25.25,0,0,1,.3.17Z"/><path class="cls-2" d="M48.84,40.42c-.17.46-.64.7-1,1-.06,0,0-.14,0-.19a1.72,1.72,0,0,1,.95-1.12c.2,0,0,.16,0,.26Z"/><path class="cls-2" d="M49.76,40.8c0,.11-.11.16-.17.22a.36.36,0,0,1-.27-.14c0-.12.09-.16.16-.22a.26.26,0,0,1,.28.14Z"/><path class="cls-2" d="M40.58,18.24a.31.31,0,0,1,0,.61H36.93a.31.31,0,0,1,0-.61ZM38,18.77c.36,0,0-.43-.17-.43h-.36c-.36,0,0,.43.17.43Zm1.5,0c.36,0,0-.43-.17-.43H39c-.36,0,0,.43.17.43Zm1.11-.43h-.14c-.36,0-.05.43.14.43s.25-.43,0-.43Z"/><path class="cls-2" d="M40.26,22.44l.7.27.69-.27-.27,1,.54-.11-.19.62.19.6-.48-.13.21,1.11L41,25.29l-.7.27.28-1.11L40,24.6l.15-.62-.15-.6.53.09-.26-1Zm1,1.86c.16,0,.17-.22.17-.4,0-.42-.34,0-.51-.4-.13.34-.47,0-.47.39s0,.42.25.42Zm-.68-.38c0,.16.22.05.38.05s.38.11.38-.05-.22-.15-.38-.15-.38-.08-.38.15Z"/><polygon class="cls-2" points="38.63 23.95 38.63 23.82 38.51 23.8 38.6 23.7 38.55 23.6 38.67 23.61 38.74 23.48 38.81 23.61 38.93 23.6 38.87 23.7 38.97 23.8 38.85 23.82 38.85 23.95 38.74 23.87 38.63 23.95 38.63 23.95"/><polygon class="cls-2" points="38.09 24.65 38.09 24.52 37.97 24.5 38.06 24.4 38 24.3 38.12 24.31 38.2 24.18 38.27 24.31 38.39 24.3 38.33 24.4 38.42 24.5 38.31 24.52 38.31 24.65 38.2 24.57 38.09 24.65 38.09 24.65"/><polygon class="cls-2" points="39.01 24.56 39.01 24.43 38.89 24.41 38.98 24.32 38.92 24.21 39.04 24.22 39.12 24.09 39.19 24.22 39.31 24.21 39.25 24.32 39.34 24.41 39.23 24.43 39.23 24.56 39.12 24.48 39.01 24.56 39.01 24.56"/><polygon class="cls-2" points="39.12 25.09 39.12 25.01 39.05 25 39.1 24.94 39.07 24.89 39.14 24.89 39.18 24.82 39.22 24.89 39.29 24.89 39.25 24.94 39.3 25 39.24 25.01 39.24 25.09 39.18 25.04 39.12 25.09 39.12 25.09"/><polygon class="cls-2" points="38.26 25.68 38.26 25.46 38.06 25.42 38.22 25.26 38.12 25.08 38.33 25.1 38.45 24.88 38.57 25.09 38.78 25.08 38.68 25.26 38.84 25.42 38.64 25.46 38.64 25.68 38.45 25.54 38.26 25.68 38.26 25.68"/><polygon class="cls-2" points="38.7 13.96 39.13 15.03 40.23 14.71 39.67 15.71 40.61 16.38 39.48 16.57 39.55 17.72 38.7 16.95 37.84 17.72 37.91 16.57 36.78 16.38 37.72 15.71 37.16 14.71 38.26 15.03 38.7 13.96 38.7 13.96"/><path class="cls-2" d="M34.72,37.92c-.13,0-.18.08-.15.22l.15.65a.59.59,0,0,1,0,.43.8.8,0,0,1-.45.27.91.91,0,0,1-.53,0,.39.39,0,0,1-.26-.33l-.16-.69c0-.17-.11-.16-.24-.14v-.05l.83-.2v.05c-.16,0-.24.06-.19.25l.16.69c0,.12.1.4.45.32a.4.4,0,0,0,.33-.55l-.15-.63c0-.13-.08-.19-.29-.15V38l.54-.13v.05Z"/><path class="cls-2" d="M35.94,38.06a.53.53,0,0,0-.56-.27c-.13,0-.25.12-.22.25s.08.15.31.19l.39.07a.44.44,0,0,1,.35.32c0,.18-.06.47-.51.57a2.13,2.13,0,0,1-.44,0c-.05,0-.06.05-.06.09l-.07,0L35,38.8l.07,0a.53.53,0,0,0,.6.33c.29-.07.26-.27.26-.3s-.16-.16-.33-.19l-.18,0c-.46-.08-.5-.25-.52-.35s0-.42.45-.53a2.17,2.17,0,0,1,.4,0c.06,0,.06,0,.07-.09l.07,0L36,38l-.07,0Z"/><path class="cls-2" d="M37.57,38.87l-.89.09V38.9c.18,0,.24,0,.22-.22l-.11-1.11c-.17,0-.43.06-.45.4h-.07l0-.42,1.5-.14,0,.42h-.07c-.08-.33-.34-.32-.52-.31l.1,1.11c0,.18.08.18.26.17v.05Z"/><path class="cls-2" d="M39.66,38.87h-.51l-.51-.67h-.07v.41c0,.17.05.18.22.2v.05l-.85,0v-.05c.17,0,.22,0,.23-.19l0-.93c0-.18-.07-.19-.22-.2v-.05l.81,0c.18,0,.71,0,.7.39s-.27.32-.4.35l.49.61a.12.12,0,0,0,.1,0v.05Zm-1.09-.75c.33,0,.46,0,.47-.31a.26.26,0,0,0-.3-.31c-.14,0-.14,0-.16.09v.54Z"/><path class="cls-2" d="M41.31,39.08,40.5,39v-.05c.16,0,.2,0,.21-.06a1.09,1.09,0,0,0-.08-.29l-.56-.07a1.26,1.26,0,0,0-.15.26c0,.08.11.1.19.12v.05l-.51-.06v-.05c.14,0,.18-.07.27-.21l.7-1.08h.07l.42,1.17c.08.24.12.31.24.32v.05Zm-.7-.59L40.42,38l-.3.48.49.06Z"/><path class="cls-2" d="M42.78,39.38l-1.43-.26v-.05c.14,0,.22,0,.24-.11l.18-1c0-.14-.08-.16-.19-.19v-.05l.86.16v.05c-.18,0-.25,0-.29.15l-.18,1c0,.1,0,.13.2.16a.62.62,0,0,0,.7-.29H43l-.19.45Z"/><path class="cls-2" d="M43.73,39.59l-.86-.18v-.05c.13,0,.23,0,.26-.1l.21-1c0-.14-.09-.16-.2-.2V38l.86.18v.05c-.12,0-.23,0-.26.1l-.21,1c0,.13.07.16.2.2v.05Z"/><path class="cls-2" d="M45.47,39.82l-.81-.08v-.05c.16,0,.2,0,.21-.06a1.1,1.1,0,0,0-.09-.29l-.56-.06a1.21,1.21,0,0,0-.14.26c0,.08.11.1.2.11v.05l-.51-.05v-.05c.14,0,.18-.07.27-.22l.67-1.09h.07l.44,1.16c.09.24.12.31.24.32v.05Zm-.71-.57-.2-.54-.29.49.49.05Z"/><path class="cls-2" d="M39,22.78c0-.51-.28,0-.44-.46-.12.36-.46.06-.46.45a.31.31,0,0,0,.11.28v.15a.07.07,0,0,0,.07.07h.54a.07.07,0,0,0,.07-.07V23a.33.33,0,0,0,.11-.26Zm-.44.1c-.15,0-.35.1-.35-.07s.17-.19.32-.19.38-.06.38.19-.2.07-.35.07Z"/><path class="cls-2" d="M43.46,29a.21.21,0,1,0-.23-.21.22.22,0,0,0,.23.21Z"/><path class="cls-2" d="M42.36,21.49a1.28,1.28,0,0,0-.11.22.11.11,0,1,0,.22,0l-.11-.22Z"/><path class="cls-2" d="M34.91,21.49a1.29,1.29,0,0,0-.11.22.11.11,0,1,0,.22,0l-.11-.22Z"/><path class="cls-2" d="M36.77,21.49a1.29,1.29,0,0,0-.11.22.11.11,0,1,0,.22,0l-.11-.22Z"/><path class="cls-2" d="M38.64,21.49a1.29,1.29,0,0,0-.11.22.11.11,0,1,0,.22,0l-.11-.22Z"/><path class="cls-2" d="M40.5,21.49a1.29,1.29,0,0,0-.11.22.11.11,0,1,0,.22,0l-.11-.22Z"/><path class="cls-2" d="M34.92,24a1.3,1.3,0,0,1,.11.22.11.11,0,1,1-.22,0l.11-.22Z"/><path class="cls-2" d="M34.92,26.53a1.29,1.29,0,0,1,.11.22.11.11,0,1,1-.22,0l.11-.22Z"/><path class="cls-2" d="M35.21,28.5a1.27,1.27,0,0,1,.11.22.11.11,0,1,1-.22,0l.11-.22Z"/><path class="cls-2" d="M36.78,29.55a1.29,1.29,0,0,1,.11.22.11.11,0,1,1-.22,0l.11-.22Z"/><path class="cls-2" d="M42.46,24a1.3,1.3,0,0,0-.11.22.11.11,0,1,0,.22,0L42.46,24Z"/><path class="cls-2" d="M42.46,26.53a1.29,1.29,0,0,0-.11.22.11.11,0,1,0,.22,0l-.11-.22Z"/><path class="cls-2" d="M42.16,28.5a1.27,1.27,0,0,0-.11.22.11.11,0,1,0,.22,0l-.11-.22Z"/><path class="cls-2" d="M40.6,29.55a1.3,1.3,0,0,0-.11.22.11.11,0,1,0,.22,0l-.11-.22Z"/><path class="cls-2" d="M38.7,30.65a1.3,1.3,0,0,0-.11.22.11.11,0,1,0,.22,0l-.11-.22Z"/><path class="cls-2" d="M41.73,26.95s.08,0,.16,0l.07-.2s-.08-.09-.13-.08-.41.07-.53.26a.39.39,0,0,0,.19.31c.07,0,.08,0,.13.08a.08.08,0,0,1-.08.11c-.14-.14-.39,0-.49-.13,0-.18.14-.38,0-.54,0,0,.07-.07,0-.11s-.23,0-.34,0a.45.45,0,0,0-.42.21.33.33,0,0,0,.09.18s.07,0,.08,0l-.12.07a.25.25,0,0,1,0,.13c-.08,0-.16-.08-.2-.14s0-.26-.12-.28l-.1,0a.34.34,0,0,0,0,.2.8.8,0,0,0,0,.21,2,2,0,0,1,.44.43c-.11.21-.11.51-.35.62a.2.2,0,0,0-.07.19l.06,0c.15-.08.45-.11.42-.37a.94.94,0,0,1,.22-.31A.24.24,0,0,1,41,28a.46.46,0,0,1-.32.35s0,.06,0,.09.18,0,.25,0,.28-.37.46-.44c0,.12-.23.15-.07.27s.25,0,.32-.13c-.08-.2.28-.29.06-.47,0-.18.19-.25.17-.44s-.29-.19-.35-.37a.26.26,0,0,1,.25,0Z"/><path class="cls-2" d="M33.17,29.1a.21.21,0,1,0-.23-.21.22.22,0,0,0,.23.21Z"/><path class="cls-2" d="M21.09,36.15a.22.22,0,1,0-.23-.22.22.22,0,0,0,.23.22Z"/><path class="cls-2" d="M28.78,37.87h0v0h0v0h0s0,0,0,0h0v0h0Zm0,0h0v0Z"/><path class="cls-2" d="M28.81,37.84h0s0,0,0,0h0Z"/><path class="cls-2" d="M28.89,37.83h0v0h0v0h0v0h0l0,0h0v0h0v0h0v0h0v0h0Z"/><path class="cls-2" d="M28.89,37.87l0,0h0a0,0,0,0,1,0,0,0,0,0,0,1,0,0,0,0,0,0,1,0,0s0,0,0,0Zm0,0h0s0,0,0,0h0s0,0,0,0Z"/><path class="cls-2" d="M28.93,37.84h0v0h0Z"/><path class="cls-2" d="M43,21.2h-8.6v6.57a1.58,1.58,0,0,0,.68,1.44l3.31,2.1a.4.4,0,0,0,.57,0L42.3,29.2A1.57,1.57,0,0,0,43,27.77V21.2Zm-.24,6.66A1.47,1.47,0,0,1,42.18,29l-3.24,2.06h0a.39.39,0,0,1-.5,0L35.18,29a1.48,1.48,0,0,1-.56-1.15V21.43h8.11v6.43Z"/><path class="cls-2" d="M39.84,30.77l.1-.05-.1.05Z"/><path class="cls-2" d="M33.36,39.75l-.81.09v-.05c.15,0,.2,0,.19-.1a1.07,1.07,0,0,0-.15-.27l-.56.07a1.18,1.18,0,0,0-.08.28c0,.08.13.07.22.07v.05l-.51.06v-.05c.13,0,.16-.11.22-.27l.42-1.21h.07l.68,1c.14.21.19.28.31.26v.05Zm-.82-.41-.31-.48L32,39.4l.49-.06Z"/><path class="cls-2" d="M47.59,36.67a1.3,1.3,0,0,0-.84-.77,1.08,1.08,0,0,0-1.07.27c-.44.36-.14,1-.12,1.44,0,.1,0,.17-.09.22-1.79-.16-3.45-.61-5.23-.79-.41-.07-.82-.05-1.21-.13l-.5-.05a20.88,20.88,0,0,0-4.53.51c-.31.1-.65.12-1,.24s-.41.12-.62.06l-.41.09h-.14c-.2-.51.39-.82.21-1.32a.9.9,0,0,0-.85-.51,1,1,0,0,0-1,.51c-.28.62.07,1.27.19,1.88,0,.2.2.42,0,.58a1.69,1.69,0,0,0-1.39-.29c-.15.07-.42,0-.49.15a3.53,3.53,0,0,0,1.8.22c.07,0,.12,0,.18,0,0,.32-.06.76.14,1a1.28,1.28,0,0,0,1,.41,14.72,14.72,0,0,0,3.18-.63c.16,0,.28-.1.46-.1A9,9,0,0,1,37,39.48a3.09,3.09,0,0,0-.52,1.12c-.15.33.26.39.38.57a9.66,9.66,0,0,0-1,.52,14,14,0,0,0-2.2.36c0,.16.26.11.28.27s-.15.12-.23.19,0,.09.07.1.23,0,.31-.11c.25,0,.46-.07.69-.09a2.33,2.33,0,0,0,.63-.25c.26-.07.42-.25.68-.32s.7-.12,1-.15v.07c-.28.46-.58.93-.88,1.37a.14.14,0,0,0,.09.2.64.64,0,0,0,.48-.08c.26-.45.49-.87.7-1.33a1.8,1.8,0,0,1,.7-.93s.12-.1.17,0a5.68,5.68,0,0,0-.59.87A1.05,1.05,0,0,0,38,42.92c.15.12.37.09.57.1.48-.25,1.1.15,1.47-.32.22,0,.26.22.38.35s.43.27.64.12c0-.14-.16-.26-.23-.39s-.33-.47-.47-.71a2.47,2.47,0,0,1-.2-.46,3.86,3.86,0,0,0,.67.26,4.11,4.11,0,0,1,.67.2,2.26,2.26,0,0,0,.62.47c.31.15.65.17,1,.3.12,0,.31.11.39,0a.55.55,0,0,0-.19-.14c0-.16.22-.07.31-.2a.18.18,0,0,0-.14-.09c-.18-.09-.62-.13-.73-.19a2.81,2.81,0,0,1-.43-.14c-.74,0-1.15-.67-1.74-.92.14-.12.34-.22.43-.41a.69.69,0,0,0,0-.66c-.11-.38-.6-.34-.89-.55l0,0a5.14,5.14,0,0,1,1.33.17,29.77,29.77,0,0,0,3.52.63c.68,0,1.53,0,1.86-.62.06-.39.14-.77.2-1.15a5.8,5.8,0,0,0,.49-1.88ZM34.27,42.34l-.17-.16c.09-.11.27-.05.41-.12a2.14,2.14,0,0,1,1-.15,3,3,0,0,1-1.28.43Zm7.7-.2a5.41,5.41,0,0,0,1.32.31c0,.17-.34,0-.3.25a2.88,2.88,0,0,1-1.11-.52s0-.05.1,0ZM30.4,36.86a.9.9,0,0,1,.3-.62,1,1,0,0,1,1,0,.47.47,0,0,1,.2.24.55.55,0,0,1-.19.56h-.12a1.38,1.38,0,0,1,.07-.56c0-.15-.14-.16-.23-.22a.72.72,0,0,0-.56.12.56.56,0,0,0-.16.55c.09.14,0,.32.06.47l0,.05a.77.77,0,0,1-.31-.62Zm.58.36c.18.14.44.07.67.11a.47.47,0,0,1-.06.42c-.21-.05-.48,0-.59-.22s0-.21,0-.31Zm0-.42c0-.1,0-.25.14-.27s.22,0,.23.07a2.45,2.45,0,0,1-.06.43.29.29,0,0,1-.31-.24Zm5.78,4a1.35,1.35,0,0,1,.39-1.12.71.71,0,0,1,.53,0c-.32.09-.73.16-.8.57,0,.16,0,.25,0,.39s.44.14.62.32a.16.16,0,0,1-.11.15,4.81,4.81,0,0,1-.67-.33Zm-.44.86c.3-.12.6-.38.94-.27a1.7,1.7,0,0,1-.94.27Zm1.17.12a9.7,9.7,0,0,1-.6,1.17c0,.06-.12.07-.2.09,0-.17.17-.31.25-.46.26-.34.33-.7.63-1,.07.07-.07.12-.07.22Zm.31-.72v0h0v0h0Zm-.11-.33a3,3,0,0,1-.59-.15c-.12-.12,0-.26,0-.4A.63.63,0,0,1,38,40a1.32,1.32,0,0,1-.31.71Zm.27,0a2.07,2.07,0,0,1,.2-.52,1,1,0,0,1-.2.52Zm.14-1c-.16,0-.25-.22-.42-.22a1,1,0,0,1,.47,0c.06.09,0,.16,0,.24Zm.15.37h0v-.14h0v.14Zm0,.57s0-.11,0-.17.12,0,.15.09a.18.18,0,0,1-.18.09Zm.18-.77a1.39,1.39,0,0,1,.19-.46.72.72,0,0,1,.33,0c0,.25.33.58,0,.8-.11.05-.27.16-.39.05a.35.35,0,0,1-.12-.44Zm.9-.35c0-.11.11,0,.16-.07l.38,0c-.2,0-.44.43-.54,0Zm.62.16c-.15.05-.26.22-.41.26a.5.5,0,0,1,.41-.26Zm-.52.77v0h0v0Zm0,.76s0,.06,0,.09l-.28-.22a.3.3,0,0,1,.31.14Zm-.33-.39a.09.09,0,0,1,.11,0Zm-.17-.19c.05-.07.11-.19.2-.19s0,0,0,0a.63.63,0,0,1-.22.15Zm-.28,0h0l.07-.07s0,0,0,.07Zm0,.47c.16-.17.31.1.37.24s.67.52.48.89c-.23.21-.61,0-.86.17-.14,0-.37,0-.44-.11a7.25,7.25,0,0,1,.46-1.19Zm-.35.24.06-.1a5.3,5.3,0,0,1-.41.89c-.07-.3.23-.53.35-.79Zm.54,1.48c-.23,0-.59.15-.81,0,0-.1-.1-.15-.09-.25.2-.07.37.16.55,0a5,5,0,0,1,.86,0c.14,0,.35-.22.37,0-.1.41-.59.12-.89.25ZM39.59,41v0h0v0Zm.07.78c0,.12.14.17.06.28a.38.38,0,0,1-.06-.28Zm.35.74-.06,0c-.06,0,0-.19,0-.26s.14.15.09.24Zm.62.3s-.07,0-.1,0a6.65,6.65,0,0,1-.78-1.49h0c.3.48.53,1,.83,1.49Zm.46-1.14a0,0,0,0,0,0,0,1.41,1.41,0,0,1-.86-.38v-.06a2.34,2.34,0,0,1,.9.4Zm-.32-1.65c.15,0,.16.2.17.32a.66.66,0,0,1-.42.61A.65.65,0,0,1,40,41a.79.79,0,0,0,.74-.42v-.56Zm-.27,0a.83.83,0,0,1,.11.55c-.12.24-.37.24-.59.29a.39.39,0,0,1-.28-.09.13.13,0,0,0,0-.12c0-.16-.28-.32-.06-.46s.67-.61.88-.16Zm6.26-.91c-.1.12,0,.32-.14.43s-.19.33-.35.42c-1.47.32-2.91-.17-4.33-.42a15.1,15.1,0,0,0-6.33-.1c-1,.17-1.87.4-2.79.66a4,4,0,0,1-1.73,0c-.44-.21-.26-.78-.4-1.18a6.27,6.27,0,0,0-.1-.86.73.73,0,0,1,0-.32c.19,0,.37.16.57.21A7.67,7.67,0,0,0,34,37.62a21.22,21.22,0,0,1,2.85-.43,18.26,18.26,0,0,1,3.31.11c.35,0,.64.1,1,.12.69.09,1.33.27,2,.32a3.4,3.4,0,0,0,.37.06,6,6,0,0,0,3.42,0,9.15,9.15,0,0,1-.25,1.29Zm-.34-1.52c0,.2-.17.15-.27.22h-.3a.68.68,0,0,1,0-.35,2.48,2.48,0,0,1,.6.12Zm-.14-.31c.14-.14,0-.92.35-.41,0,.1,0,.25-.09.32s-.16.15-.26.09Zm1-.12a.71.71,0,0,1-.53.42c0-.3.28-.51.19-.84a.74.74,0,0,0-.78-.25c-.11.07-.06.2-.1.31l0,.41c-.25,0-.26-.22-.33-.4a.72.72,0,0,1,.38-.65.85.85,0,0,1,.72,0,.56.56,0,0,1,.41.26c.19.17.14.48.1.71Z"/><rect class="cls-2" x="87.61" y="13.96" width="0.51" height="38.79"/><path class="cls-2" d="M184.81,13.63c.84.92.39,2.54.57,2.59.35.12,1.2,0,1.75.08s1.95,0,2,.55c.23.8-2.53,1-2.92,1.56a5.11,5.11,0,0,0-.44,3.08c1.66,0,2.7-1.39,4-.6-.15.1-.28,0-.38.19a1.57,1.57,0,0,1,.52.35c-.15,0-.53-.11-.55-.05s.4.22.46.46c-1.76-.53-2.2-.24-3.71.22-.56,9.66-2.49,10.72-2.7,13.78-.07,1.27-.07,2.87-.08,5.1a65.94,65.94,0,0,0,1.15,8.43A25.15,25.15,0,0,1,185,52a3.54,3.54,0,0,1-.33,1.94s-.85.34-1.17-.33c-.19-1.27-.28-1.76-.57-3.93-.4-3.1-.62-4.45-1.06-6.58a61.78,61.78,0,0,1,0-7c-.93,0-1.49-.31-2,.35a16,16,0,0,0-.19,5.4,41.55,41.55,0,0,0,.82,4.8,28.11,28.11,0,0,1,.54,4.56c0,1.36-.74,1.14-1,1-.62-.33-.7-2.49-1.28-5.73a38.87,38.87,0,0,1-.82-10.56c-1.31-.24-6.31-.3-10.51-.85-1.64-.2-2.89-.28-4.18-.55-1.8-.33-3.09-.92-3.3-1.42.19-.71,2,.08,4.23.3,4.12.41,9.78,1.66,12.72-.05,2.48-1.43,2.8-3.85,4-6.52a65.47,65.47,0,0,0,2.89-7.34,28.7,28.7,0,0,1,.79-3.08,4.61,4.61,0,0,1-.16-1.06,3.51,3.51,0,0,1,.36-1.69Zm1.61,2.87a.28.28,0,0,0,0,.52.35.35,0,0,0,.49-.27.3.3,0,0,0-.49-.25Z"/><path class="cls-2" d="M174.55,18.06a5.33,5.33,0,0,1,4.78,4.31c-.12,3.2-2,5.14-5.29,5.46-3.34,0-4.89-3.22-5-4.67a5.46,5.46,0,0,1,5.51-5.1Zm0,1.31a3.6,3.6,0,0,0-3.74,3.79,3.52,3.52,0,0,0,5.9,2.46c2.89-2.63.33-6.58-2.16-6.25Z"/><path class="cls-2" d="M98.71,44c0-1.42.89-2.45,2.7-2.45.39,0,.8,0,1.17.06v1.66a7,7,0,0,0-.81,0c-.59,0-.84.25-.84.92v.48h1.53v1.48h-1.53v6.59H98.71Z"/><path class="cls-2" d="M106.76,44.36a4,4,0,0,1,4.18,4.26,4.18,4.18,0,1,1-8.35,0A4,4,0,0,1,106.76,44.36Zm0,6.84c1.51,0,2-1.3,2-2.58s-.45-2.59-2-2.59-2,1.3-2,2.59S105.26,51.2,106.76,51.2Z"/><path class="cls-2" d="M111.8,44.58h2.11v1.5h0a2.85,2.85,0,0,1,2.57-1.72,1.65,1.65,0,0,1,.49.08V46.5a4.18,4.18,0,0,0-.8-.08c-1.62,0-2.19,1.17-2.19,2.59v3.64H111.8Z"/><path class="cls-2" d="M122.13,44.58h1.62v1.48h-1.62v4c0,.75.19.94.94.94a3.44,3.44,0,0,0,.69-.06v1.73a8.53,8.53,0,0,1-1.3.08c-1.36,0-2.55-.31-2.55-1.92V42.16h2.22Z"/><path class="cls-2" d="M124.79,41.5H127v4.2h0a2.84,2.84,0,0,1,2.36-1.34c2.36,0,3,1.33,3,3.33v5h-2.22V48.09c0-1.33-.39-2-1.42-2-1.2,0-1.72.67-1.72,2.31v4.23h-2.22Z"/><path class="cls-2" d="M135.26,49.15c.06,1.4.75,2,2,2a1.83,1.83,0,0,0,1.75-1h2a3.63,3.63,0,0,1-3.78,2.72A3.94,3.94,0,0,1,133,48.62a4,4,0,0,1,4.12-4.26c2.75,0,4.08,2.31,3.92,4.79Zm3.61-1.4c-.2-1.12-.69-1.72-1.77-1.72a1.75,1.75,0,0,0-1.84,1.72Z"/><path class="cls-2" d="M154.49,44.58h2.11v1.5h0a2.86,2.86,0,0,1,2.58-1.72,1.64,1.64,0,0,1,.48.08V46.5a4.16,4.16,0,0,0-.79-.08c-1.63,0-2.19,1.17-2.19,2.59v3.64h-2.22Z"/><path class="cls-2" d="M162.61,44.58h1.62v1.48h-1.62v4c0,.75.19.94.94.94a3.43,3.43,0,0,0,.69-.06v1.73a8.53,8.53,0,0,1-1.3.08c-1.36,0-2.54-.31-2.54-1.92V42.16h2.22Z"/><path class="cls-2" d="M166.7,50c0,1,.83,1.36,1.7,1.36.64,0,1.45-.25,1.45-1s-.92-.9-2.51-1.25c-1.28-.28-2.56-.73-2.56-2.15,0-2.06,1.78-2.59,3.51-2.59s3.39.59,3.56,2.58h-2.11c-.06-.86-.72-1.09-1.51-1.09-.5,0-1.23.09-1.23.75s1.25.91,2.51,1.2,2.56.76,2.56,2.26c0,2.12-1.84,2.81-3.68,2.81s-3.7-.7-3.79-2.84Z"/><polygon class="cls-2" points="149.9 41.44 147.38 41.44 143.12 52.65 145.62 52.65 148.6 44.2 148.63 44.2 150.04 48.31 147.13 48.31 146.49 50.15 150.69 50.15 151.54 52.65 154.09 52.65 149.9 41.44"/><path class="cls-2" d="M105.53,32.4a2.49,2.49,0,0,0-2.59-2.07c-2.23,0-3.16,2-3.16,4s.93,4,3.16,4a2.68,2.68,0,0,0,2.65-2.72h1.78a4.26,4.26,0,0,1-4.43,4.21c-3.12,0-5-2.48-5-5.45s1.86-5.45,5-5.45c2.34,0,4.19,1.31,4.41,3.55Z"/><path class="cls-2" d="M107.85,35.72a3.8,3.8,0,1,1,7.6,0,3.81,3.81,0,1,1-7.6,0Zm5.94,0c0-1.3-.66-2.65-2.14-2.65s-2.14,1.36-2.14,2.65.66,2.66,2.14,2.66S113.79,37,113.79,35.72Z"/><path class="cls-2" d="M122.79,39.5h-1.63v-1h0A2.53,2.53,0,0,1,119,39.7c-2,0-2.81-1-2.81-3V32h1.66v4.62c0,1.32.54,1.8,1.44,1.8,1.38,0,1.85-.89,1.85-2.05V32h1.66Z"/><path class="cls-2" d="M124,32h1.57v1.11l0,0A2.7,2.7,0,0,1,128,31.76a2.38,2.38,0,0,1,2.66,2.56V39.5H129V34.76c0-1.18-.5-1.69-1.47-1.69a1.84,1.84,0,0,0-1.82,2V39.5H124Z"/><path class="cls-2" d="M137,34.49a1.59,1.59,0,0,0-1.72-1.41c-.86,0-2.07.45-2.07,2.74,0,1.25.55,2.58,2,2.58A1.79,1.79,0,0,0,137,36.67h1.66a3.24,3.24,0,0,1-3.45,3c-2.36,0-3.66-1.67-3.66-3.89s1.24-4,3.71-4c1.75,0,3.23.87,3.39,2.72Z"/><path class="cls-2" d="M139.61,29.1h1.66v1.57h-1.66Zm0,2.87h1.66V39.5h-1.66Z"/><path class="cls-2" d="M142.83,29.1h1.66V39.5h-1.66Z"/><path class="cls-2" d="M102.19,17h1.94l4,10.4h-2l-1-2.75h-4.15l-1,2.75H98.2Zm-.64,6.26h3.18l-1.56-4.47h0Z"/><path class="cls-2" d="M115.14,27.38h-1.63v-1h0a2.53,2.53,0,0,1-2.14,1.25c-2,0-2.81-1-2.81-3V19.85h1.66v4.62c0,1.33.54,1.81,1.44,1.81,1.38,0,1.85-.89,1.85-2.05V19.85h1.66Z"/><path class="cls-2" d="M117.68,25c.09,1,.82,1.31,1.7,1.31.63,0,1.72-.13,1.67-1s-1.25-1-2.46-1.25-2.42-.7-2.42-2.23,1.78-2.16,3.15-2.16c1.54,0,2.94.64,3.15,2.32h-1.73c-.15-.79-.8-1-1.53-1-.48,0-1.37.12-1.37.77,0,.82,1.22.93,2.45,1.21s2.43.71,2.43,2.2c0,1.79-1.81,2.45-3.37,2.45-1.89,0-3.31-.84-3.33-2.62Z"/><path class="cls-2" d="M123.62,19.85V17.59h1.66v2.26h1.5v1.24h-1.5v4c0,.69.06,1,.8,1a2.82,2.82,0,0,0,.7-.06v1.28c-.36,0-.71.09-1.08.09-1.73,0-2.05-.67-2.08-1.92V19.85Z"/><path class="cls-2" d="M127.82,19.85h1.56V21.3h0a2.43,2.43,0,0,1,2.2-1.66,3.94,3.94,0,0,1,.63,0v1.6a5.85,5.85,0,0,0-.71-.07c-1.14,0-2,.92-2,2.58v3.58h-1.66Z"/><path class="cls-2" d="M140.32,17H142v10.4h-1.66Z"/><path class="cls-2" d="M143.54,17h1.66v1.57h-1.66Zm0,2.87h1.66v7.53h-1.66Z"/><path class="cls-2" d="M137.49,27.38H139V21.7c-.08-1.49-1.58-2.06-3-2.06-1.66,0-3.31.57-3.42,2.51h1.66c.07-.82.73-1.19,1.66-1.19.67,0,1.56.16,1.56,1s-1.06.84-2.26,1.06c-1.4.16-2.9.47-2.9,2.34a2.29,2.29,0,0,0,2.58,2.2,3.86,3.86,0,0,0,2.61-.92C137.49,27,137.49,27.24,137.49,27.38Zm-.13-2.54c0,1-1.14,1.43-1.86,1.43S134,26,134,25.3s.64-1.14,1.35-1.25a5.91,5.91,0,0,0,2-.45Z"/><path class="cls-2" d="M151.34,27.38h1.52V21.7c-.08-1.49-1.58-2.06-3-2.06-1.66,0-3.31.57-3.42,2.51h1.66c.07-.82.73-1.19,1.66-1.19.67,0,1.56.16,1.56,1s-1.06.84-2.26,1.06c-1.4.16-2.9.47-2.9,2.34a2.29,2.29,0,0,0,2.58,2.2,3.87,3.87,0,0,0,2.61-.92C151.34,27,151.34,27.24,151.34,27.38Zm-.13-2.54c0,1-1.14,1.43-1.86,1.43s-1.53-.22-1.53-1,.64-1.14,1.35-1.25a5.93,5.93,0,0,0,2-.45Z"/></svg>