<svg id="Layer_1" data-name="Layer 1" xmlns="http://www.w3.org/2000/svg" viewBox="0 0 190 67"><defs><style>.cls-1{fill:#231f20;}.cls-2{fill:#221f1f;}</style></defs><title>Artboard 1</title><path class="cls-1" d="M50.72,56.69a.42.42,0,0,1-.42-.42V12.93a.42.42,0,0,1,.85,0V56.26a.42.42,0,0,1-.42.42Z"/><path class="cls-2" d="M11.91,45.89,4.78,37.52h-3v13.1H4.7V42.27l7.11,8.35h3V37.52H11.91Zm28.24-8.37-2,8.39-2-8.39H33.33l-2.08,8.29-1.89-8.29H26.27l3.41,13.1h3l2-8.29,2,8.29h3l0-.11,3.43-13Z"/><path class="cls-2" d="M1.45,54.64h0a2.06,2.06,0,0,1,2.09-2.1,2.19,2.19,0,0,1,1.56.55l-.45.54a1.59,1.59,0,0,0-1.14-.43,1.37,1.37,0,0,0-1.31,1.43h0a1.35,1.35,0,0,0,1.38,1.45,1.65,1.65,0,0,0,1-.31V55h-1v-.62H5.24v1.7a2.59,2.59,0,0,1-1.69.63,2,2,0,0,1-2.1-2.09"/><path class="cls-2" d="M5.67,54.64h0a2.08,2.08,0,0,1,2.13-2.1,2.06,2.06,0,0,1,2.11,2.08h0a2.08,2.08,0,0,1-2.13,2.1,2.06,2.06,0,0,1-2.11-2.09m3.49,0h0a1.39,1.39,0,0,0-1.38-1.44,1.37,1.37,0,0,0-1.37,1.43h0A1.39,1.39,0,0,0,7.8,56.07a1.37,1.37,0,0,0,1.37-1.43"/><polygon class="cls-2" points="9.86 52.6 10.65 52.6 11.87 55.72 13.09 52.6 13.86 52.6 12.17 56.68 11.54 56.68 9.86 52.6"/><polygon class="cls-2" points="14.34 52.6 17.34 52.6 17.34 53.24 15.05 53.24 15.05 54.29 17.08 54.29 17.08 54.93 15.05 54.93 15.05 56.02 17.37 56.02 17.37 56.65 14.34 56.65 14.34 52.6"/><path class="cls-2" d="M18.06,52.6h1.81A1.64,1.64,0,0,1,21,53a1.22,1.22,0,0,1,.34.87h0a1.22,1.22,0,0,1-1,1.23l1.1,1.53h-.84l-1-1.41h-.89v1.41h-.71Zm1.75,2c.51,0,.83-.27.83-.68h0c0-.43-.31-.67-.84-.67h-1v1.36Z"/><polygon class="cls-2" points="22 52.6 22.66 52.6 24.84 55.4 24.84 52.6 25.54 52.6 25.54 56.65 24.94 56.65 22.7 53.77 22.7 56.65 22 56.65 22 52.6"/><polygon class="cls-2" points="26.26 52.6 27.02 52.6 28.25 54.52 29.49 52.6 30.25 52.6 30.25 56.65 29.53 56.65 29.53 53.75 28.25 55.66 28.23 55.66 26.96 53.76 26.96 56.65 26.26 56.65 26.26 52.6"/><polygon class="cls-2" points="30.93 52.6 33.93 52.6 33.93 53.24 31.64 53.24 31.64 54.29 33.67 54.29 33.67 54.93 31.64 54.93 31.64 56.02 33.96 56.02 33.96 56.65 30.93 56.65 30.93 52.6"/><polygon class="cls-2" points="34.66 52.6 35.32 52.6 37.49 55.4 37.49 52.6 38.2 52.6 38.2 56.65 37.6 56.65 35.36 53.77 35.36 56.65 34.66 56.65 34.66 52.6"/><polygon class="cls-2" points="40.05 53.26 38.76 53.26 38.76 52.6 42.05 52.6 42.05 53.26 40.77 53.26 40.77 56.65 40.05 56.65 40.05 53.26"/><path class="cls-2" d="M15.66,48.8l1.73-2.07a6.11,6.11,0,0,0,4,1.62c1.2,0,1.92-.48,1.92-1.25v0c0-.74-.46-1.12-2.68-1.69-2.68-.68-4.41-1.43-4.41-4.07v0c0-2.41,1.94-4,4.66-4a7.71,7.71,0,0,1,4.94,1.69l-1.52,2.21a6.25,6.25,0,0,0-3.46-1.31c-1.12,0-1.71.51-1.71,1.16v0c0,.87.57,1.16,2.87,1.75,2.7.7,4.22,1.67,4.22,4v0c0,2.64-2,4.13-4.89,4.13A8.47,8.47,0,0,1,15.66,48.8Z"/><path class="cls-2" d="M8.76,12.65c-.28,0-.44.17-.5.49,0,0-.07.48-.14,1.29S8,16.35,8,17.75c0,3.15.41,7.63,2.37,11.07,1.51,2.62,3.63,4.1,6,4.18a7.52,7.52,0,0,1-2.61-3.71,20.17,20.17,0,0,1-.83-6.09,33.75,33.75,0,0,1,.7-6.68v0a1.42,1.42,0,0,1,.69-1A35.3,35.3,0,0,0,9.4,12.87L9,12.71H9a.68.68,0,0,0-.26-.06Z"/><path class="cls-2" d="M29.39,16.34a.35.35,0,0,0-.2.09L29,16.6l-.61.52a26.92,26.92,0,0,0-2,2,18.92,18.92,0,0,0-4,6.69,14.32,14.32,0,0,0-.73,4.16,4.86,4.86,0,0,0,.4,2.16,2.42,2.42,0,0,0,1.23,1.22,2.22,2.22,0,0,0,.89.16h0A6.19,6.19,0,0,0,29.55,29a19.78,19.78,0,0,0,.77-5.81,33.61,33.61,0,0,0-.57-6l-.1-.51c0-.16-.12-.35-.26-.35Z"/><path class="cls-2" d="M14.82,16.34c-.15,0-.23.19-.28.36l-.1.51c0,.23-.14.72-.24,1.41a33,33,0,0,0-.34,4.59,19.15,19.15,0,0,0,.78,5.8,6.31,6.31,0,0,0,5.5,4.47h0a2.36,2.36,0,0,0,.94-.17,2.22,2.22,0,0,0,.42-.23,3.52,3.52,0,0,1-.34-.57,6,6,0,0,1-.51-2.57,15.75,15.75,0,0,1,.79-4.44c0-.15.1-.31.15-.46l.06-.18a22.91,22.91,0,0,0-6.42-8.24L15,16.42a.41.41,0,0,0-.21-.09Z"/><path class="cls-2" d="M22.09,9c-.1,0-.2.08-.31.24,0,0-.09.13-.22.36l-.61,1c-.45.79-1.13,2.07-1.83,3.67-.48,1.09-.92,2.22-1.3,3.37a22.16,22.16,0,0,1,4.35,6,22.09,22.09,0,0,1,4.19-5.91,41.92,41.92,0,0,0-3.75-8.15l-.23-.36C22.24,9,22.12,9,22.09,9Z"/><path class="cls-2" d="M35.39,12.65a.67.67,0,0,0-.25.06h0l-.37.16c-.23.09-.54.24-.93.42l-.14.06a35.52,35.52,0,0,0-3.46,1.92l-.37.23a1.41,1.41,0,0,1,.7,1v0a34.3,34.3,0,0,1,.69,6.68,20.73,20.73,0,0,1-.81,6.08A7.49,7.49,0,0,1,27.9,33c2.34-.11,4.43-1.58,5.92-4.18,2-3.43,2.37-7.91,2.37-11.07,0-1.12-.05-2.24-.15-3.33-.07-.8-.14-1.28-.14-1.29a.51.51,0,0,0-.51-.48Z"/><path class="cls-2" d="M28.9,10h-.1a.47.47,0,0,0-.22.09h0s-.52.32-1.31.89c-.44.32-1.14.84-2,1.54.62,1.29,1.18,2.6,1.65,3.91a33.1,33.1,0,0,1,3.41-2.33,34,34,0,0,0-.93-3.68v0A.51.51,0,0,0,28.9,10Z"/><path class="cls-2" d="M15.26,10a.51.51,0,0,0-.48.39v0a33.74,33.74,0,0,0-.93,3.68,33,33,0,0,1,3.41,2.33,39.29,39.29,0,0,1,1.65-3.91c-.67-.56-1.34-1.08-2-1.54s-1.31-.88-1.31-.89h0a.47.47,0,0,0-.22-.09h-.1Z"/><path class="cls-2" d="M3.81,18.51c-.69,0-1.09,0-1.09,0a.9.9,0,0,0-.69.41.85.85,0,0,0-.14.51c0,.47.36,2.19,2.41,4.77,1-.52,2.09-1,3.1-1.36A30.71,30.71,0,0,1,7,18.67c-1.25-.12-2.24-.15-2.85-.16Z"/><path class="cls-2" d="M40.35,18.51H40c-.61,0-1.6,0-2.85.16a31.85,31.85,0,0,1-.37,4.18c1,.38,2.05.84,3.1,1.36,2.05-2.59,2.36-4.31,2.41-4.77a1,1,0,0,0-.14-.5.9.9,0,0,0-.69-.41s-.41,0-1.09,0Z"/><path class="cls-2" d="M36.59,23.8a18.21,18.21,0,0,1-2,5.49,9.69,9.69,0,0,1-3.4,3.62c9.74-.53,12.49-3.67,12.78-4h0a.86.86,0,0,0,.15-.48.89.89,0,0,0-.35-.71l-.32-.22h0c-.15-.12-.38-.26-.66-.45l-.23-.15a35,35,0,0,0-3.19-1.81,29.42,29.42,0,0,0-2.82-1.25Z"/><path class="cls-2" d="M7.58,23.8A33.4,33.4,0,0,0,.66,27.47l-.32.22A.89.89,0,0,0,0,28.4a.86.86,0,0,0,.14.48l0,0L.23,29l0,0a4.9,4.9,0,0,0,.47.44,9.77,9.77,0,0,0,2.33,1.42,28.47,28.47,0,0,0,9.86,2,9.87,9.87,0,0,1-3.4-3.63A18.21,18.21,0,0,1,7.58,23.8Z"/><path class="cls-2" d="M35.36,33.63a20.77,20.77,0,0,0-2.35.26l-.52.07a13.68,13.68,0,0,1-1.87.1L29.1,34h0L27.4,34a15.76,15.76,0,0,0-4.1.43.15.15,0,0,0-.11.14s.09.06.16.06h.06c.54,0,1.06-.07,1.55-.07a15.44,15.44,0,0,1,4.16.6,13.46,13.46,0,0,0,3.59.54A4.75,4.75,0,0,0,36,34.83a.77.77,0,0,0,.23-.6c0-.41-.17-.6-.85-.6Z"/><path class="cls-2" d="M8.8,33.63c-.67,0-.8.19-.84.6a.76.76,0,0,0,.22.6,4.81,4.81,0,0,0,3.28.88A13.46,13.46,0,0,0,15,35.16a15.42,15.42,0,0,1,4.16-.6c.49,0,1,0,1.55.07h.06c.07,0,.16,0,.16-.06a.15.15,0,0,0-.11-.14A15.73,15.73,0,0,0,16.77,34h0l-1.65,0h0l-1.52,0a13.71,13.71,0,0,1-1.88-.1l-.53-.07a20.84,20.84,0,0,0-2.35-.25Z"/><path class="cls-1" d="M56.59,35.69v0a6,6,0,0,1,6.12-6.14,6.19,6.19,0,0,1,4.64,1.85L66,32.91a4.72,4.72,0,0,0-3.32-1.47,4,4,0,0,0-3.92,4.19v0a4,4,0,0,0,3.92,4.2,4.63,4.63,0,0,0,3.41-1.53l1.34,1.36a6.12,6.12,0,0,1-4.81,2.1A6,6,0,0,1,56.59,35.69Z"/><path class="cls-1" d="M69.22,32.64h2.05v2a3.17,3.17,0,0,1,3.17-2.19v2.17h-.12c-1.8,0-3.05,1.17-3.05,3.54v3.41H69.22Z"/><path class="cls-1" d="M75.52,37.15v0a4.44,4.44,0,0,1,4.37-4.66c2.85,0,4.29,2.24,4.29,4.81,0,.19,0,.37,0,.58H77.57a2.5,2.5,0,0,0,2.58,2.27A3.25,3.25,0,0,0,82.57,39l1.2,1.07a4.53,4.53,0,0,1-3.66,1.68A4.47,4.47,0,0,1,75.52,37.15Zm6.63-.66a2.32,2.32,0,0,0-2.27-2.36,2.42,2.42,0,0,0-2.32,2.36Z"/><path class="cls-1" d="M85.55,39v0c0-1.93,1.51-2.88,3.7-2.88a7.48,7.48,0,0,1,2.41.37v-.22c0-1.27-.78-1.95-2.22-1.95a6.23,6.23,0,0,0-2.56.56l-.54-1.61a7.63,7.63,0,0,1,3.37-.73,4,4,0,0,1,3,1,3.71,3.71,0,0,1,1,2.76v5.31h-2V40.47a3.64,3.64,0,0,1-2.92,1.31C87,41.77,85.55,40.81,85.55,39Zm6.14-.64v-.61a5.68,5.68,0,0,0-2-.36c-1.32,0-2.1.56-2.1,1.49v0c0,.86.76,1.36,1.75,1.36C90.65,40.28,91.69,39.5,91.69,38.37Z"/><path class="cls-1" d="M96.31,39.11V34.4H95.17V32.64h1.14V30.18h2.05v2.46h2.41V34.4H98.36v4.39a1,1,0,0,0,1.1,1.12,2.76,2.76,0,0,0,1.27-.3v1.68a3.55,3.55,0,0,1-1.85.46C97.37,41.74,96.31,41.08,96.31,39.11Z"/><path class="cls-1" d="M102,37.15v0a4.44,4.44,0,0,1,4.37-4.66c2.85,0,4.29,2.24,4.29,4.81,0,.19,0,.37,0,.58h-6.58a2.5,2.5,0,0,0,2.58,2.27A3.25,3.25,0,0,0,109.08,39l1.2,1.07a4.53,4.53,0,0,1-3.66,1.68A4.47,4.47,0,0,1,102,37.15Zm6.63-.66a2.32,2.32,0,0,0-2.27-2.36,2.42,2.42,0,0,0-2.32,2.36Z"/><path class="cls-1" d="M118.08,29.72H120l6.36,8.2v-8.2h2.05V41.59h-1.75l-6.54-8.44v8.44h-2.05Z"/><path class="cls-1" d="M130.67,39.86l1.25-1.49a5.5,5.5,0,0,0,3.75,1.54c1.29,0,2.1-.61,2.1-1.49v0c0-.85-.47-1.31-2.68-1.81-2.53-.61-3.95-1.36-3.95-3.54v0c0-2,1.7-3.44,4.05-3.44A6.58,6.58,0,0,1,139.51,31l-1.12,1.58a5.39,5.39,0,0,0-3.22-1.22c-1.22,0-1.93.63-1.93,1.41v0c0,.92.54,1.32,2.83,1.86,2.51.61,3.8,1.51,3.8,3.47v0c0,2.22-1.75,3.54-4.24,3.54A7.31,7.31,0,0,1,130.67,39.86Z"/><path class="cls-1" d="M141.16,29.72h2.25l2.83,8.8,2.92-8.83h1.76l2.92,8.83,2.83-8.8h2.19l-4.12,11.95h-1.81L150,33.15l-2.92,8.53h-1.8Z"/><path class="cls-1" d="M60.17,48h.62l4,8.73h-.71L63,54.26H57.9l-1.1,2.43h-.67Zm2.58,5.72-2.28-5-2.29,5Z"/><path class="cls-1" d="M66.52,50.37h.61v1.8a3,3,0,0,1,2.8-1.9v.67h-.06c-1.46,0-2.74,1.1-2.74,3.16v2.59h-.61Z"/><path class="cls-1" d="M71.81,55.06V50.93H70.9v-.56h.92v-2h.61v2h2.22v.56H72.42V55a1.11,1.11,0,0,0,1.26,1.23,2.12,2.12,0,0,0,.93-.22v.57a2.32,2.32,0,0,1-1,.22A1.61,1.61,0,0,1,71.81,55.06Z"/><path class="cls-1" d="M75.89,55.89l.36-.48a3.7,3.7,0,0,0,2.27.83c.85,0,1.52-.47,1.52-1.2v0c0-.74-.79-1-1.67-1.26S76.2,53.14,76.2,52v0a1.86,1.86,0,0,1,2.08-1.75,4.26,4.26,0,0,1,2.24.69l-.32.51a3.63,3.63,0,0,0-1.94-.63c-.87,0-1.44.47-1.44,1.1v0c0,.71.85,1,1.76,1.23s2.08.66,2.08,1.77v0a2,2,0,0,1-2.18,1.85A4.33,4.33,0,0,1,75.89,55.89Z"/><path class="cls-1" d="M82.09,57.7c.53-.27.73-.54.69-1h-.33V55.63h.82v.92a1.37,1.37,0,0,1-1,1.46Z"/><path class="cls-1" d="M88.73,55.42l.42-.48a4.21,4.21,0,0,0,3.11,1.29c1.3,0,2.19-.73,2.19-1.72v0c0-.92-.48-1.45-2.45-1.84s-2.92-1.13-2.92-2.44v0c0-1.29,1.18-2.28,2.79-2.28a4.32,4.32,0,0,1,3,1.05l-.41.51a3.73,3.73,0,0,0-2.59-1c-1.28,0-2.12.73-2.12,1.63v0c0,.92.47,1.47,2.53,1.9s2.85,1.13,2.85,2.39v0c0,1.4-1.2,2.37-2.87,2.37A4.93,4.93,0,0,1,88.73,55.42Z"/><path class="cls-1" d="M96.65,53.55v0a3.28,3.28,0,0,1,3.22-3.31,3.32,3.32,0,0,1,2.53,1.16l-.43.45a2.85,2.85,0,0,0-2.11-1A2.61,2.61,0,0,0,97.3,53.5v0a2.66,2.66,0,0,0,2.6,2.74A2.82,2.82,0,0,0,102,55.21l.42.37a3.24,3.24,0,0,1-5.8-2Z"/><path class="cls-1" d="M104.15,50.37h.61v1.8a3,3,0,0,1,2.8-1.9v.67h-.06c-1.46,0-2.74,1.1-2.74,3.16v2.59h-.61Z"/><path class="cls-1" d="M108.67,53.54v0a3.11,3.11,0,0,1,3-3.29c1.77,0,2.9,1.44,2.9,3.31a1.54,1.54,0,0,1,0,.25h-5.24a2.5,2.5,0,0,0,2.48,2.49,2.84,2.84,0,0,0,2.17-1l.42.37a3.32,3.32,0,0,1-2.61,1.19A3.14,3.14,0,0,1,108.67,53.54Zm5.24-.31a2.34,2.34,0,0,0-2.27-2.45,2.46,2.46,0,0,0-2.33,2.45Z"/><path class="cls-1" d="M115.91,53.54v0a3.11,3.11,0,0,1,3-3.29c1.77,0,2.9,1.44,2.9,3.31a1.62,1.62,0,0,1,0,.25h-5.24A2.5,2.5,0,0,0,119,56.27a2.84,2.84,0,0,0,2.17-1l.42.37A3.32,3.32,0,0,1,119,56.83,3.14,3.14,0,0,1,115.91,53.54Zm5.24-.31a2.34,2.34,0,0,0-2.27-2.45,2.46,2.46,0,0,0-2.33,2.45Z"/><path class="cls-1" d="M123.57,50.37h.61v1.18a2.47,2.47,0,0,1,2.28-1.33,2.41,2.41,0,0,1,2.53,2.6v3.86h-.61V52.93a1.93,1.93,0,0,0-2-2.16A2.16,2.16,0,0,0,124.18,53v3.65h-.61Z"/><path class="cls-1" d="M139.93,55.31a3.78,3.78,0,0,1-2.93,1.5,2.46,2.46,0,0,1-2.66-2.4v0c0-1.16.83-2,2.24-2.54a2.85,2.85,0,0,1-1-2v0a2,2,0,0,1,2.17-2,1.92,1.92,0,0,1,2,1.88v0c0,1.08-.8,1.78-2.13,2.24l2.28,2.34A11.21,11.21,0,0,0,141,52.25l.58.23a12.09,12.09,0,0,1-1.29,2.3l1.6,1.65-.51.42Zm-.41-.42L137,52.24c-1.38.47-2,1.28-2,2.12v0a1.9,1.9,0,0,0,2,1.87A3.33,3.33,0,0,0,139.53,54.89Zm-.4-5.09v0a1.35,1.35,0,0,0-1.37-1.36,1.42,1.42,0,0,0-1.5,1.4v0c0,.54.23,1,1,1.78C138.5,51.22,139.13,50.62,139.13,49.8Z"/><path class="cls-1" d="M147,52.38v0a4.36,4.36,0,0,1,4.33-4.48,4.57,4.57,0,0,1,3.37,1.39l-.46.47a4,4,0,0,0-2.92-1.28,3.71,3.71,0,0,0-3.65,3.88v0a3.74,3.74,0,0,0,3.67,3.9,4,4,0,0,0,3-1.35l.43.42a4.57,4.57,0,0,1-3.44,1.51A4.31,4.31,0,0,1,147,52.38Z"/><path class="cls-1" d="M156.24,54.23V50.37h.61v3.75a1.93,1.93,0,0,0,2,2.16A2.16,2.16,0,0,0,161,54V50.37h.61v6.32H161V55.51a2.47,2.47,0,0,1-2.28,1.32A2.41,2.41,0,0,1,156.24,54.23Z"/><path class="cls-1" d="M164,47.65h.61v9H164Z"/><path class="cls-1" d="M167.37,55.06V50.93h-.92v-.56h.92v-2H168v2h2.22v.56H168V55a1.11,1.11,0,0,0,1.26,1.23,2.11,2.11,0,0,0,.93-.22v.57a2.32,2.32,0,0,1-1,.22A1.61,1.61,0,0,1,167.37,55.06Z"/><path class="cls-1" d="M171.87,54.23V50.37h.61v3.75a1.93,1.93,0,0,0,2,2.16A2.16,2.16,0,0,0,176.67,54V50.37h.61v6.32h-.61V55.51a2.47,2.47,0,0,1-2.28,1.32A2.41,2.41,0,0,1,171.87,54.23Z"/><path class="cls-1" d="M179.58,50.37h.61v1.8a3,3,0,0,1,2.8-1.9v.67h-.06c-1.46,0-2.74,1.1-2.74,3.16v2.59h-.61Z"/><path class="cls-1" d="M184.11,53.54v0a3.11,3.11,0,0,1,3-3.29c1.77,0,2.9,1.44,2.9,3.31a1.62,1.62,0,0,1,0,.25h-5.24a2.5,2.5,0,0,0,2.48,2.49,2.84,2.84,0,0,0,2.17-1l.42.37a3.32,3.32,0,0,1-2.61,1.19A3.14,3.14,0,0,1,184.11,53.54Zm5.24-.31a2.34,2.34,0,0,0-2.27-2.45,2.46,2.46,0,0,0-2.33,2.45Z"/></svg>